<svg width="217" height="214" viewBox="0 0 217 214" fill="none" xmlns="http://www.w3.org/2000/svg">
<path d="M17 213L11 117L194 93.9999L202 182L17 213Z" fill="#265682"/>
<path d="M11.5683 206.403L0.209397 114.743L201.667 101.705L215.802 185.262L11.5683 206.403Z" fill="#FBF6F0"/>
<circle cx="73.645" cy="116" r="4" fill="#C7A77B"/>
<circle cx="124.645" cy="114" r="4" fill="#C7A77B"/>
<path d="M48.7231 164.56C50.0565 164.56 51.2298 164.2 52.2431 163.48C53.2831 162.76 53.8031 161.68 53.8031 160.24C53.8031 158.773 53.2431 157.653 52.1231 156.88C51.0298 156.107 49.4565 155.44 47.4031 154.88C45.3765 154.293 43.8965 153.787 42.9631 153.36C42.0565 152.933 41.1898 152.373 40.3631 151.68C38.7098 150.293 37.8831 148.147 37.8831 145.24C37.8831 142.867 38.7231 140.827 40.4031 139.12C42.1098 137.413 44.4298 136.56 47.3631 136.56C48.7765 136.56 50.2431 136.773 51.7631 137.2C53.3098 137.6 54.2698 137.8 54.6431 137.8C55.0165 137.8 55.3498 137.533 55.6431 137H56.0831L56.3631 145.08H55.7231C54.4431 142.76 53.0965 140.907 51.6831 139.52C50.2965 138.107 48.7765 137.4 47.1231 137.4C45.4965 137.4 44.2298 137.787 43.3231 138.56C42.4165 139.307 41.9631 140.32 41.9631 141.6C41.9631 142.853 42.4965 143.827 43.5631 144.52C44.6565 145.187 45.9898 145.733 47.5631 146.16C49.1365 146.587 50.1631 146.88 50.6431 147.04C51.1498 147.2 51.7631 147.427 52.4831 147.72C53.2298 147.987 53.8298 148.28 54.2831 148.6C54.7631 148.893 55.2565 149.28 55.7631 149.76C56.2965 150.213 56.7098 150.72 57.0031 151.28C57.7231 152.56 58.0831 154.08 58.0831 155.84C58.0831 158.72 57.1765 161.04 55.3631 162.8C53.5765 164.533 51.2165 165.4 48.2831 165.4C46.7631 165.4 45.0165 165.2 43.0431 164.8C41.0965 164.4 40.0165 164.2 39.8031 164.2C39.4298 164.2 39.0698 164.6 38.7231 165.4H38.1631L37.7631 155.88H38.4431C39.6165 158.2 41.1098 160.227 42.9231 161.96C44.7631 163.693 46.6965 164.56 48.7231 164.56ZM65.9875 143.2C64.5742 143.2 63.5609 142.84 62.9475 142.12C62.3609 141.4 62.0675 140.507 62.0675 139.44C62.0675 138.373 62.3875 137.493 63.0275 136.8C63.6942 136.107 64.6942 135.76 66.0275 135.76C67.3609 135.76 68.3742 136.08 69.0675 136.72C69.7609 137.333 70.1075 138.227 70.1075 139.4C70.1075 140.547 69.7742 141.467 69.1075 142.16C68.4409 142.853 67.4009 143.2 65.9875 143.2ZM59.9475 145.96H69.7475V164.28H71.9875V165H60.1075V164.28H62.3075V146.68H59.9475V145.96ZM88.8428 143.88L89.9628 143.2C90.1228 142.373 89.8028 141.96 89.0028 141.96C87.8562 141.96 87.2828 142.84 87.2828 144.6C87.2828 145.293 87.3762 146.093 87.5628 147C89.5895 148.36 90.6028 150.107 90.6028 152.24C90.6028 154.347 89.8695 155.987 88.4028 157.16C86.9362 158.333 84.9495 158.92 82.4428 158.92C81.4028 158.92 80.3228 158.813 79.2028 158.6C78.0295 159.347 77.4428 159.907 77.4428 160.28C77.4428 160.653 78.2962 160.84 80.0028 160.84H84.0828C90.1362 160.84 93.1628 163.013 93.1628 167.36C93.1628 169.707 92.2428 171.56 90.4028 172.92C88.5895 174.307 85.7495 175 81.8828 175C75.2962 175 72.0028 173.573 72.0028 170.72C72.0028 169.173 73.0295 168.107 75.0828 167.52L77.4828 168.6C77.2695 169.373 77.1628 170.107 77.1628 170.8C77.1628 173.093 78.8695 174.24 82.2828 174.24C84.3628 174.24 85.9628 173.853 87.0828 173.08C88.2028 172.307 88.7628 171.347 88.7628 170.2C88.7628 169.053 88.4162 168.28 87.7228 167.88C87.0562 167.507 85.7095 167.32 83.6828 167.32H79.8028C77.6428 167.32 76.0962 166.96 75.1628 166.24C74.2295 165.52 73.7628 164.64 73.7628 163.6C73.7628 162.533 74.0962 161.653 74.7628 160.96C75.4295 160.24 76.6162 159.36 78.3228 158.32C75.2295 157.44 73.6828 155.413 73.6828 152.24C73.6828 150.24 74.4028 148.627 75.8428 147.4C77.2828 146.173 79.4428 145.56 82.3228 145.56C84.0562 145.56 85.5362 145.893 86.7628 146.56C86.6028 145.84 86.5228 145.187 86.5228 144.6C86.5228 143.107 86.9228 142.027 87.7228 141.36C88.5228 140.693 89.4162 140.36 90.4028 140.36C91.3895 140.36 92.1762 140.627 92.7628 141.16C93.3762 141.667 93.6828 142.373 93.6828 143.28C93.6828 144.187 93.4428 144.867 92.9628 145.32C92.4828 145.747 91.8962 145.96 91.2028 145.96C90.5362 145.96 89.9762 145.787 89.5228 145.44C89.0962 145.067 88.8695 144.547 88.8428 143.88ZM80.3628 151.36V153.52C80.3628 155.307 80.5095 156.52 80.8028 157.16C81.1228 157.8 81.5895 158.12 82.2028 158.12C82.8428 158.12 83.2962 157.813 83.5628 157.2C83.8562 156.56 84.0028 155.267 84.0028 153.32V151.36C84.0028 149.28 83.8695 147.92 83.6028 147.28C83.3362 146.613 82.8828 146.28 82.2428 146.28C81.6295 146.28 81.1628 146.627 80.8428 147.32C80.5228 147.987 80.3628 149.333 80.3628 151.36ZM93.7813 145.96H103.421V149.64C103.848 148.413 104.501 147.427 105.381 146.68C106.261 145.933 107.595 145.56 109.381 145.56C113.515 145.56 115.581 147.787 115.581 152.24V164.28H117.821V165H106.501V164.28H108.141V151.28C108.141 149.68 108.035 148.653 107.821 148.2C107.608 147.72 107.221 147.48 106.661 147.48C105.808 147.48 105.048 148.04 104.381 149.16C103.741 150.28 103.421 151.64 103.421 153.24V164.28H105.141V165H93.7813V164.28H95.9813V146.68H93.7813V145.96ZM135.977 156.48C135.977 158.933 136.391 160.813 137.217 162.12C138.071 163.427 139.591 164.08 141.777 164.08C143.964 164.08 145.644 163.4 146.817 162.04C147.991 160.68 148.577 158.613 148.577 155.84V137.76H145.977V137H151.817V137.76H149.617V155.56C149.617 158.867 148.884 161.333 147.417 162.96C145.951 164.587 143.351 165.4 139.617 165.4C135.911 165.4 133.071 164.627 131.097 163.08C129.151 161.533 128.177 158.88 128.177 155.12V137.76H125.977V137H138.577V137.76H135.977V156.48ZM167.051 154.24C167.051 151.493 166.918 149.653 166.651 148.72C166.385 147.76 165.865 147.28 165.091 147.28C164.318 147.28 163.625 147.787 163.011 148.8C162.398 149.787 162.091 151.12 162.091 152.8V160.12C162.091 161.267 162.318 162.24 162.771 163.04C163.225 163.84 163.891 164.24 164.771 164.24C165.651 164.24 166.251 163.653 166.571 162.48C166.891 161.307 167.051 159.253 167.051 156.32V154.24ZM162.011 145.96V149.12C163.051 146.747 164.891 145.56 167.531 145.56C169.825 145.56 171.598 146.387 172.851 148.04C174.131 149.693 174.771 152.2 174.771 155.56C174.771 158.92 174.078 161.4 172.691 163C171.331 164.6 169.278 165.4 166.531 165.4C165.251 165.4 164.291 165.24 163.651 164.92C163.011 164.6 162.491 164.107 162.091 163.44V173.8H167.251V174.52H152.451V173.8H154.651V146.68H152.531V145.96H162.011Z" fill="#265682"/>
<path d="M72.645 118L103.645 59L126.645 118" stroke="#C7A77B"/>
<path d="M55.5 92C55.5 92 60 85.1667 61 83.5L58 83.5L53.5 92.5L57 96.5C56.5 94.5 55.5 92 55.5 92Z" fill="#265682"/>
<path d="M47.5 90C47.5 90 52 83.1667 53 81.5L50 81.5L45.5 90.5L49 94.5C48.5 92.5 47.5 90 47.5 90Z" fill="#265682"/>
<path fill-rule="evenodd" clip-rule="evenodd" d="M49.8211 82.2579C62.3742 90.4161 100.054 92.086 103.012 61.3209L110.287 57.4795L102.832 59.4068L110.479 52.1119L102.103 55.3917C101.007 51.1895 96.275 42.6885 86.1145 42.3003C79.4657 42.6524 74.0857 47.5206 71.063 50.2559C70.0887 51.1373 69.3592 51.7974 68.9112 52.0132C68.6896 52.1202 68.3249 52.3497 67.8296 52.6612C64.216 54.9351 53.6529 61.5821 41.0345 56.8086C34.2023 53.3277 31.997 45.9576 31.2142 42.9561C29.3272 53.0123 37.268 74.1002 49.8211 82.2579ZM97.7522 52.1319L90.5825 55.7662C91.0126 54.7706 92.403 52.7378 93.7895 52.1949C95.1759 51.6519 96.9477 51.8956 97.7522 52.1319Z" fill="#265682"/>
<path fill-rule="evenodd" clip-rule="evenodd" d="M48.1019 38.6084C46.1149 30.9028 45.8875 22.7085 48.8712 15.0893C51.3662 25.7949 60.0303 40.1987 73.711 44.5908C73.711 44.5908 68.6425 47.5815 65.3403 55.4697C63.104 60.8115 65.8658 66.5498 66.9789 68.5122C67.2431 68.9585 67.4046 69.2163 67.4045 69.2163C44.4716 59.6396 37.1783 46.017 40.3368 23.852C43.0167 30.2841 45.5449 35.041 48.1019 38.6084Z" fill="#265682"/>
</svg>
