<svg fill="none" height="586" viewBox="0 0 559 586" width="559" xmlns="http://www.w3.org/2000/svg"><g stroke="#ebeff2" stroke-opacity=".17"><path d="m255.607 557.001c54.095-14.58 162.347-53.181 162.6-90.942.316-47.2-173.306 31.973-182.248-24.569-8.943-56.543 167.13-33.667 157.012-91.827s-117.615-39.39-129.939-97.184"/><circle r="4.5" transform="matrix(.809017 -.587785 -.587785 -.809017 252.327 219.834)"/><path d="m106.747 180.239-.21.143-.239-.085-29.6245-10.49-4.6416 13.107 29.6251 10.49.239.085.073.243v.001l.001.005.007.022c.007.02.017.052.03.093.027.083.07.207.128.368.115.321.295.787.547 1.361.504 1.148 1.296 2.724 2.447 4.426 2.303 3.407 6.026 7.301 11.731 9.322l74.083 26.234c3.57 1.264 7.511-.637 8.794-4.262l6.634-18.733c1.284-3.624-.583-7.582-4.153-8.846l-74.082-26.234c-5.706-2.02-11.05-1.337-14.983-.139-1.966.599-3.574 1.325-4.688 1.9-.557.288-.99.537-1.282.714-.146.088-.257.158-.33.205-.037.024-.064.042-.082.054l-.019.013-.004.002z"/><path d="m71.1008 167.833-6.0026-2.126-4.6415 13.108 6.0025 2.125z"/><path d="m216.337 101.116h-.001l-.234-.096-.062-.246-5.689-22.8206-9.91 2.4707 5.69 22.8209.061.246-.162.195-.003.003-.01.012c-.005.007-.012.015-.019.024-.008.009-.016.02-.026.033-.04.05-.1.127-.176.229-.151.204-.368.508-.622.902-.508.788-1.163 1.933-1.75 3.353-1.174 2.843-2.064 6.768-.971 11.153l14.304 57.368c.672 2.697 3.433 4.341 6.175 3.657l14.506-3.616c2.742-.684 4.407-3.432 3.735-6.129l-14.303-57.368c-1.094-4.384-3.722-7.432-6.093-9.391-1.185-.979-2.302-1.682-3.12-2.139-.409-.229-.743-.396-.973-.504-.115-.055-.203-.095-.263-.121-.029-.013-.051-.022-.065-.028l-.016-.007z"/><path d="m209.215 73.3978-1.099-4.4079-9.91 2.4707 1.099 4.408z"/><path d="m341.408 139.911-.046-.249.175-.184 16.189-17.06-7.408-7.031-16.189 17.061-.175.184-.251-.033h-.001-.003l-.017-.002c-.008-.001-.018-.002-.03-.004-.012-.001-.026-.002-.041-.004-.065-.006-.162-.015-.288-.025-.254-.018-.627-.037-1.095-.04-.937-.005-2.255.057-3.769.326-3.029.537-6.817 1.896-9.927 5.174l-40.699 42.887c-1.913 2.016-1.816 5.228.233 7.173l10.845 10.291c2.05 1.945 5.262 1.874 7.176-.143l40.698-42.887c3.11-3.278 4.269-7.132 4.647-10.185.189-1.525.182-2.844.128-3.78-.027-.468-.066-.839-.098-1.091-.016-.126-.03-.223-.039-.287-.005-.032-.009-.055-.012-.071l-.003-.016v-.003z"/><path d="m360.958 119.012 3.127-3.295-7.408-7.031-3.127 3.296z"/></g></svg>