<svg width="460" height="396" fill="none" xmlns="http://www.w3.org/2000/svg"><g clip-path="url(#clip0)"><path d="M251.7 382.088l-2.854-10.703c23.544-6.422 32.82-79.202 7.135-173.389-24.971-94.187-69.206-152.697-92.75-146.275l-2.855-10.703c37.814-9.99 84.19 69.926 106.307 154.123 22.117 84.198 23.544 176.244-14.983 186.947z" fill="#D7DBDE"/><path d="M343.024 282.172c-36.387 9.989-97.032 4.995-153.396-9.989-44.948-12.13-84.902-29.255-114.155-47.808-30.679-19.979-44.948-40.671-39.953-58.51l10.701 2.141c-2.854 12.13 9.989 29.255 35.674 46.379 27.825 18.552 67.066 34.964 110.587 46.38 94.178 24.974 166.951 16.411 173.372-7.849l10.702 2.855c-3.567 12.844-15.696 21.407-33.532 26.401z" fill="#D7DBDE"/><path d="M81.976 336.743c-27.793-27.808 18.528-107.669 79.814-168.99 61.286-61.321 141.1-108.382 169.606-80.573l-7.839 7.843c-17.103-17.113-84.803 11.409-153.215 80.573-68.412 69.165-97.63 136.191-80.528 153.304l-7.838 7.843z" fill="#D7DBDE"/><path d="M356.58 170.881c22.117 82.77-27.112 168.395-109.875 191.228-82.762 22.834-168.378-27.114-191.209-109.884-22.83-82.77 27.112-168.395 109.875-191.228C248.133 38.164 333.749 88.11 356.58 170.88z" fill="#F6F8F9"/><path d="M152.528 350.693c-2.14-.713-2.14-1.426-1.426-3.567.713-.714.713-2.141.713-3.568l-2.14-4.281c2.854-1.427 3.567-2.14 3.567-4.995.714-.713 1.427-.713 1.427-1.427l1.427-1.426c1.426-2.141.713-2.855-.714-4.282l-1.427-1.426c1.427-.714 4.281-.714 4.995-2.141 2.14-4.995 4.994-9.276 3.567-16.411v-2.855c.713-2.854 2.14-4.995 4.281-6.421 2.14-.714 2.854-2.855 3.567-4.995.713-2.855.713-6.422 0-9.277-1.427-2.854-.714-5.708 0-8.562.713-.714.713-2.141.713-2.854.714-2.855 1.427-5.708 1.427-8.563 0-1.427-.714-3.567-2.14-3.567-2.141 0-4.281-2.141-5.708-3.568-.714-.713-1.427-.713-2.854-1.427-2.14-.713-4.281.714-6.421-1.426-1.427-1.427-2.854-.714-4.281-.714-2.854-3.568-5.707-7.849-8.562-11.417l-.713-.714c-3.567-.713-6.421-3.567-8.562-6.422-2.14-2.14-4.281-4.281-6.421-.713-.714-.714-1.427-1.427-2.14-1.427h-6.422v-2.141c-.713 0-2.14-.714-2.854 0-2.14 2.141-5.707 2.855-5.707 7.849-2.141-1.427-2.141-1.427-4.281-.714-1.427.714-2.141 1.427-3.567 0-1.427-1.427-1.427-2.854-1.427-4.995.714-2.854 0-4.995-2.14-5.708-1.427-.714-2.14-.714-3.567-.714h-2.14c0-2.14.713-3.567.713-4.995.713-1.426.713-2.854 1.427-4.995.713-1.426 0-2.14-1.427-2.14-2.854 0-4.281 1.427-5.708 4.281-.713 1.427-1.426 2.141-2.14 2.854-3.567 1.427-6.421-2.14-5.708-7.848 0-2.141.714-4.282.714-6.422.714-4.995 3.567-7.849 7.848-7.849 1.427 0 2.854.714 3.567-2.14l.714-.714c4.28 0 4.994 0 6.421 5.708 0 .714 0 1.427.714 2.14l2.14 2.141c.714-.714 1.427-1.427 1.427-2.141v-5.708c-1.427-4.281-.714-7.848 2.854-9.989 1.427-.714 2.14-1.427 2.854-2.854s1.427-2.855 1.427-4.281c0-4.995 2.14-7.136 4.281-9.99 1.426-1.427 2.14-2.854 3.567-4.281 2.14-2.141 4.28-4.281 5.707-7.136h1.427c-.714.714-1.427 2.141-2.141 2.855 2.141.714 8.562-3.568 9.989-7.136-1.427.714-2.854.714-4.281.714-1.427 0-2.14-.714-1.427-2.854v-2.141c-.713-.714-1.426-.714-2.14-.714-.714 0-2.141 1.427-3.567 2.141 2.14-2.141 3.567-3.568 6.421-4.281 2.14 0 4.281-1.427 5.707-2.141.714 0 .714-.714 1.427-.714-.713 2.141-1.427 3.568-2.14 5.708v.714s.713.714 1.427.714c1.426-.714 2.14 0 3.567.714 1.426.713 3.567 0 4.28-1.427.714-2.141 0-3.568-2.14-4.281-.714 0-.714-1.427-.714-2.141 0-1.427.714-2.141.714-3.567.714-2.141 0-4.282-2.14-4.995-2.141-.714-2.854-2.141-2.854-4.995 0-4.282-2.141-5.709-4.995-3.568-.714.714-1.427 0-2.14 0 .713-2.854-1.427-2.854-2.141-4.281-.713-1.427-5.707-1.427-6.421 0-.714 2.14-2.14 3.567-2.854 5.708-.714.714-.714 2.141-.714 3.567 0 2.141 0 3.568-1.426 4.282-.714 2.854-1.427 4.995-1.427 7.848 0 .714-.714 1.427-1.427 2.141l-.714-.714c0-1.427.714-2.854.714-4.281 0-.714-.714-2.141-.714-2.141-2.14-.713-4.28-1.427-7.134-2.854-.714 0-1.427-.714-2.141-.714 0-1.427-.714-4.281 0-4.995 3.567-3.567 7.848-7.135 11.416-10.703-.714.714-.714 2.141-1.427 2.855 1.427 1.426 2.854 1.426 3.567 0 0 0 .714 0 .714-.714.714-.714 1.427-1.427 2.854-1.427-.714-.714-1.427-2.141-2.14-2.854 2.854-1.427 4.994-4.995 4.994-6.422l-1.427-1.427v-.714c2.141.714 4.281.714 6.422 1.427 1.426.714 1.426 2.141 0 3.567-.714.714-2.141 1.427-2.855 1.427-1.426.714-2.854 1.427-2.854 3.568h1.427c1.427-.714 2.854 0 4.281 2.14l2.14 2.141c1.427.714 2.854 0 4.281-1.427 2.141-2.14 3.567-2.854 1.427-6.422 2.854 1.427 4.281.714 6.421-3.567-.714 0-1.427-.714-2.14-.714-1.427-.714-2.854-1.427-2.854-4.281 0-.714-.714-1.427-1.427-2.141-2.141-1.427-4.281-2.14-7.135-3.567.714-.714.714-1.427 1.427-2.141v-.714c-2.141 0-3.567 0-5.708-.713 4.995 0 9.988-2.14 14.269-5.708 0 3.567.714 4.995 3.567 4.995 1.427 0 2.854-.714 4.281-.714 2.854 0 4.281 2.14 3.567 4.995v1.427c.714.713 2.141.713 2.854 1.426-1.426.714-2.854 1.427-3.567 2.141v.714c.714 0 1.427.714 2.141.714-.714.713-1.427 1.426-1.427 2.14-.714 1.427-1.427 2.855-1.427 3.568.714 2.854 2.141 6.422 2.854 9.276l.714.714c1.427 0 3.567.713 4.995 0 .713 0 1.426-2.141 2.14-2.855.714-1.427 1.427-2.854 2.14-3.567.714-.714 1.427-2.141 2.854-2.855.714-.713 2.141-1.426 2.855-2.14.713-.714 2.14-.714 2.854-1.427 2.854-3.567 6.421-5.708 10.702-6.422 1.426 0 2.14-1.427 2.854-2.14v-.714c-.714 0-.714 0-1.427-.714 2.14-2.14 2.14-2.14 1.427-4.995 4.994-3.567 4.994-3.567 3.567-6.422 1.427-.713 2.14-2.14.714-3.567 2.14-1.427 4.28-2.855 6.421-4.281v-.714c-1.427 0-2.854.714-4.281.714-2.14.713-2.854.713-4.281.713h-.714c0-2.14-1.426-1.426-1.426-1.426-4.995 0-9.989.713-14.983 1.426-1.427 0-2.854 1.427-4.281 2.14-3.567.715-7.135 1.428-10.702 2.142-.714-.714-1.427-1.427-2.14-1.427-8.562-.714-16.41.713-23.545 4.995h-.713c-2.141 0-4.281 1.426-5.708 3.567l2.854 2.855c-2.14.713-4.281.713-5.707 1.426-.714-1.427-1.427-2.14-2.141-2.854-2.14-.714-3.567 0-4.994 2.14 1.426 0 2.854.714 4.281.714.713 0 2.14.714 2.14 1.427 0 4.281 2.14 3.568 3.567 4.281l-4.281 4.282c-.713.713-.713 2.14-.713 2.854.713 0 1.426.714 2.14.714h.714c-.714 1.427-.714 2.14-1.427 2.14-1.427 0-2.854-.713-4.281-1.426 1.427-3.568 2.141-7.136 5.708-8.563-2.141-.714-4.281.714-5.708 2.854-.714.714-1.427 1.427-1.427 2.141.714-.714 1.427-2.854 2.141-4.995h2.14c.714 0 .714-.714 1.427-1.427-.714-.714-.714-2.14-1.427-2.14h-4.994c-.714 0-.714 1.426-1.427 1.426.714.714 1.427.714 1.427 1.427.713 0 .713 0 1.426.714-2.14 1.427-4.28 2.141-6.421 3.568 2.141 2.14 4.281 2.854 5.708 2.14l-7.135 7.136h-1.427c-1.427 0-2.854-.714-4.28-.714 1.426-.714 2.14-.714 3.566-.714.714 0 1.427-1.427 1.427-2.14 0-2.141.714-4.282.714-6.422-1.427-1.427-2.854 0-4.281 1.427-2.14 1.426-4.28.713-6.421 0-.714-1.427-1.427-1.427-2.854-1.427-2.14 2.14-4.281 4.995-6.421 7.848.713 0 1.426 0 2.14-.713.714 0 .714-.714 1.427-.714 0 0 .713 0 .713.714 0 1.427-2.854 0-1.426 2.854 2.14.714 3.567.714 5.707 1.427 0 0-2.854 0-4.994-2.141h-4.995c-16.41 21.406-27.111 47.094-31.392 74.208l2.14 2.14c2.854 2.141 4.995 6.422 4.281 11.417 0 .714 0 1.427.714 2.141 1.426 2.14 2.14 4.281 3.567 6.422.714 1.427 2.14 2.14 3.567 1.427-2.14-4.995-4.28-9.99-4.995-15.698.714 1.426 1.427 2.854 2.14 4.281.714 2.854 2.141 5.708 4.282 8.562 1.426 2.141 2.854 4.281 3.567 7.136 0 1.427.713 2.14 1.427 2.854 2.14 4.281 5.707 6.422 9.275 5.708 4.28-.714 7.135 2.141 10.702 4.281.714 0 1.427.714 1.427.714 1.426.714 2.854 1.427 4.994 2.855-.714 1.426-2.14 2.14 0 3.567 1.427.714 2.854 2.141 4.281 2.854 2.14 2.141 2.854 1.427 4.281-1.426 3.567 5.708 4.28 7.848 1.426 14.27-1.426 3.567-2.854 6.422-.713 9.989v.714c0 2.854.713 4.995 2.14 7.136 1.427 2.14 3.567 4.995 4.281 7.135 2.854 4.995 5.707 9.276 9.988 12.13 3.567 2.141 4.995 5.708 5.708 10.703.713 5.708 2.14 12.13 2.854 17.839.713 3.567.713 7.135 1.426 10.703 0 .714 0 1.427.714 2.14.714 2.141 1.427 4.282 2.141 7.136 0 1.427.713 2.141.713 3.567.714 1.427 1.427 2.141 2.854 0 0 2.141.714 2.855.714 4.282s0 2.854.714 4.281c4.281 2.141 7.848 3.567 12.128 4.995v-3.568c.001-1.426.001-2.14-1.426-2.853zM333.749 134.492c-1.427 0-2.854 0-4.995.714-1.427 0-2.854 0-3.567.714-3.567 0-6.421.713-9.988.713-.714 0-1.427.714-1.427.714 0 2.855-1.427 2.141-2.14 2.141h-3.567c-2.855 0-5.708-.714-8.562 1.427h-.714c-1.426 0-2.854.713-4.281.713-1.426 0-2.854.714-4.28 1.427.713-.713.713-1.427 1.426-2.14-1.426-2.141-2.854-2.141-4.28-1.427-2.141 0-4.281.714-6.422 1.427-3.567 1.427-6.421 2.854-9.275 4.995-2.14 1.427-3.567 4.281-5.707 6.421-.714.714-1.427 1.427-2.855.714-1.426-.714-3.567 0-4.28 1.427-.714 2.141.713 2.854 1.426 3.568-2.14 0-3.567 0-5.707.713l-.714.714c.714 2.854-.714 2.141-2.14 2.141-3.567.713-6.421 1.427-8.562 5.708-.714 1.427-1.427 2.14-2.854 2.854-.714.714-1.427 0-2.854 0v-.714c.714 0 1.427 0 2.14-.713l1.427-1.427c-.714-.714-1.427-2.141-2.14-2.141-2.141-.714-4.995 0-7.135-.714-.714 0-.714 0-1.427-.713-1.427-2.141-2.854-2.141-3.567-1.427l-8.562 4.281-2.14 2.141v.713c1.427 1.427 0 2.855 0 3.568-1.427 2.14-2.854 3.567-4.281 5.708-1.427 2.14-.714 5.708.714 7.849 1.427 1.426 2.14 1.426 4.281-.714 1.426-1.427 2.14-.714 2.854 1.427.713 1.426.713 2.14 2.14 2.14.714 0 2.141-.714 2.854-2.14.714-1.427.714-2.855 1.427-4.282.714-1.426 0-2.854-1.427-2.854-1.427-.714-1.427-1.427-.713-2.854 0-.714.713-1.427 1.426-2.141.714 3.568 1.427 4.281 3.567 4.995l.714 3.568c-1.427 0-2.14.713-2.14 2.854 0 .714-.714 1.427-.714 2.14-1.427.714-2.14 2.141-3.567 2.855s-2.854 0-3.567-1.427c-.714-1.427-.714-2.141-2.141-2.141-1.426.714-1.426 1.427-1.426 2.855v2.854c-.714 2.141-2.141 4.281-3.568 6.422 0-1.427 0-2.854-.713-2.854-1.427-2.141-2.854-3.568-4.995-4.995v-1.427c-1.426-1.427-2.14-2.141-3.567-1.427-.714.714-2.14 1.427-2.854 2.854l4.995 4.995c0 2.855 0 4.995-.714 7.136 2.14-1.427 4.281-2.855 7.135-3.568-1.427 2.141-3.567 4.282-5.708 6.422.714 0 1.427.714 2.141.714 1.426.714 2.14 2.141 2.14 4.281 0 2.141-.714 2.855-2.14 2.855-.714 0-2.141.713-2.854.713-2.141.714-2.141 1.427-2.141 4.282v2.854c0 .714.714 2.141 1.427 2.854 1.427 1.427 2.854 2.141 4.281 2.855-.714 2.854-2.141 4.995-2.854 7.848 0 3.568-.714 6.422-2.141 9.277-1.427 2.854-2.14 7.135-1.427 10.703.714 2.854 1.427 6.421 2.141 9.276.714 2.14 2.14 4.995 3.567 7.135 2.14 2.855 4.281 5.708 7.135 7.849 2.14 2.141 4.281 2.854 6.421 2.141.714-.714 1.427-.714 2.141-.714 2.14 0 4.28-1.427 4.994-3.568 1.427-2.14 2.854-2.14 4.994-1.426.714.713 2.141.713 2.855 1.426 2.854 0 2.854.714 3.567 3.568 1.426 5.708 4.281 9.989 7.135 14.27 2.854 4.282 4.28 7.849 3.567 12.844-.714 2.854 0 5.708 2.14 7.849 4.281 5.708 7.135 12.843 10.702 19.979 2.141 4.281 4.995 5.708 7.848 4.281 4.281-2.14 7.135-5.708 7.848-11.417.714-3.567 1.427-6.421 2.14-9.989v-3.567c-1.426-3.568-.713-6.422.714-9.277.714-2.14 1.427-4.281.714-6.421-.714-2.141-.714-4.282-1.427-6.422l-2.14-6.422c-1.427-5.708 0-11.417 2.14-15.698 1.427-2.854 2.854-6.422 2.854-10.703 0-2.855.714-5.708-.714-8.563-2.14 1.427-4.28 2.141-5.707 3.568-.714.714-2.14.714-2.854-.714-1.427-1.427-2.854-3.567-4.281-4.281-2.14-1.427-4.281-3.568-5.707-5.708-2.141-4.281-4.281-7.849-7.135-11.417 0 0 0-.714-.714-1.427l.714-.714c2.14 2.141 4.28 4.282 6.421 7.136 1.427 1.427 2.14 2.854 3.567 4.995s3.567 4.281 4.994 7.136c2.855 4.281 2.141 4.281 5.708 1.426 4.281-2.854 6.421-7.848 8.562-12.843.713-1.427.713-2.141 1.426-3.568 0-2.854-.713-4.281-2.854-5.708-.714-.714-1.427-.714-2.854-1.427-1.427-.713-2.14-1.426-2.14.714 0 .714-.714 1.427-.714 2.141-.714.714-.714.714-1.427 0l-2.14-2.141c-1.427-1.427-3.567-2.854-4.281-5.708 1.427 1.427 3.567 2.854 4.995 4.281 1.426.714 2.854 1.427 3.567 0 .713-1.427 1.426-1.427 2.854-.713 2.854 1.426 5.707.713 7.848 0 2.14-.714 4.994.713 6.421 2.854 2.14 3.567 2.854 3.567 5.707 2.141.714.713.714 2.14 1.427 2.854 1.427 3.567 2.854 6.422 4.995 9.989l4.28 6.422c1.427 2.141 2.855 1.427 2.855-.714 0-.714 0-1.427.713-2.14.714-2.855 0-4.995-.713-7.849-.714-1.427 0-2.854.713-4.281 1.427-2.855 2.141-6.422 3.567-9.99.714-.713 2.141-1.426 2.854-2.14 2.141 2.14 4.995 4.281 6.422 7.849.713 1.426 1.426 2.14 2.14.713 0-.713.714-.713 1.427-1.427 2.14 2.855 3.567 5.709 4.281 9.99 0 1.427.713 3.567 1.426 4.281 2.141 3.567 4.995 6.422 7.848 9.989-1.427-.714-2.14-1.427-3.567-2.854-2.14-2.141-3.567-2.855-5.707-2.141 0 0-.714 0-.714.714s.714.714.714 1.427c3.567 2.14 5.707 5.708 8.561 9.276 1.427 2.141 3.567 2.854 4.995 4.995.713.714.713.714 1.426.714l2.141-6.422-.714-.714c-.714-.714-1.427-.714-2.14-1.427-.714-.713-1.427-2.14-2.141-2.854 0-.714.714-1.427 0-2.141-.713-2.854-2.14-5.708-4.281-7.135-3.567-1.427-4.28-4.281-4.994-7.849 0-1.427 0-2.14 1.427-1.427.713 0 .713 0 1.426.714l5.708 5.708c.714-1.427 2.14-3.567 2.854-5.708.714-.714 0-2.854-.714-4.281-1.426-2.855-3.567-4.995-5.707-6.422-2.141-.714-2.141-2.854-1.427-4.281.714-1.427 2.14-2.141 2.854-2.855 2.141-1.426 4.281-2.14 5.708-4.995 1.426-2.14 2.14-4.995 2.14-7.848 0-2.141-.714-4.995-2.14-6.422 0 0 0-.714-.714-.714-.714-1.427-1.427-2.14-2.854-3.567-2.854-2.141-2.854-2.141-1.427-5.708-.713 0-2.14-.714-2.854-.714s-1.427 0-2.14-.714c0 0-.714-.714-.714-1.427 0-.713.714-1.427.714-1.427s.713 0 1.426.714c0 0 .714.714.714 1.427 1.427-.714 2.14-1.427 3.567.714 2.141 0 2.854 1.427 3.567 3.567 0 .714 1.427 1.427 2.141 1.427.713 0 1.426-.714 2.14-1.427 0-.714 0-2.14-.714-2.854l-4.28-4.281c-1.427-1.427-1.427-4.995 0-5.708 2.14-1.427 2.854-2.855 2.14-6.422-1.427-4.995-4.281-8.563-7.135-12.13-.714-.714-2.14 0-2.854 0s-.714.714-1.427.714c-.713-.714-2.14-1.427-2.14-1.427.714-2.141-.714-4.281.714-5.708l6.421-1.427c1.427 0 2.14-.714 2.14-2.855 0-.713 0-1.426.714-1.426-2.14-4.282-4.281-7.849-6.421-12.13-5.706-4.287-8.56-4.287-10.7-4.287z" fill="#265682"/><path d="M251.7 382.088c-37.814 9.989-84.189-69.926-107.02-154.124-22.831-84.197-22.831-176.243 15.696-186.946l2.854 10.703c-23.544 6.421-32.819 79.202-7.134 173.389 25.684 94.187 69.206 152.697 93.464 146.275l2.14 10.703z" fill="#D7DBDE"/><path d="M376.154 257.219l-10.689-2.854c6.413-23.547-52.022-67.786-146.089-92.76-94.066-25.687-166.754-16.411-173.168 7.135l-10.689-2.854c9.977-37.817 102.618-37.817 186.708-15.698s163.904 68.5 153.927 107.031z" fill="#D7DBDE"/><path d="M123.275 342.13c-17.837 4.995-32.82 3.568-41.381-5.708l7.848-7.848c17.123 17.125 84.902-11.417 153.395-80.63 68.493-68.499 97.032-136.285 79.909-153.41l7.848-7.849c27.825 27.828-18.55 107.745-79.909 169.109-41.38 41.384-91.323 76.346-127.71 86.336zM135.405 162.319c11.427 0 20.691-9.264 20.691-20.692s-9.264-20.692-20.691-20.692-20.69 9.264-20.69 20.692 9.263 20.692 20.69 20.692z" fill="#D7DBDE"/><path d="M180.353 327.86c11.427 0 20.691-9.264 20.691-20.692s-9.264-20.692-20.691-20.692-20.69 9.264-20.69 20.692 9.263 20.692 20.69 20.692zM300.929 206.558c11.427 0 20.69-9.264 20.69-20.692s-9.263-20.692-20.69-20.692c-11.427 0-20.69 9.264-20.69 20.692s9.263 20.692 20.69 20.692z" fill="#D7DBDE"/></g><path fill-rule="evenodd" clip-rule="evenodd" d="M363.959 185.998c1.727 7.384 6.411 15.011 14.908 22.369l-1.646 9.431 3.636-8.281 1.429 12.157 3.004-10.072c4.885 1.872 16.626 3.314 24.505-5.896 2.54-3.583 3.436-7.762 3.658-11.575.178-3.044-.074-5.855-.261-7.943-.136-1.517-.238-2.652-.116-3.218.06-.28.107-.779.17-1.455.27-2.881.843-8.993 4.043-15.269 2.285-4.482 5.91-9.047 11.72-12.581 8.421-3.975 17.199-.956 20.688.381-27.486-28.554-75.033-11.986-84.753 15.246-4.758 1.845-11.918 4.604-16.932 6.264l15.469-.411a28.841 28.841 0 00-.196 6.63l-12.024 4.531 12.698-.308zm46.738-30.556c-7.049-.362-13.742 1.878-19.561 5.321 2.221-2.923 5.463-6.123 10.106-9.886-18.107 2.876-27.194 11.418-29.369 30.318-.187.436-.351.856-.488 1.258 0 0 .138-.16.398-.422-.027.254-.051.51-.075.768 0 0 1.479-1.67 3.339-3.343 1.849-1.127 4.276-2.096 6.991-1.898 7.249.527 10.964 3.565 10.964 3.565.107-11.246 9.623-21.209 17.695-25.681zm-14.198 44.161l-5.708 8.772c1.105-.295 3.341-1.243 4.561-2.768 1.219-1.526 1.366-4.647 1.147-6.004zM228.339 58.694c11.154-.299 32.439-13.975 23.606-42.427l5.024-6.131-5.898 4.497 4.069-9.34-6.211 6.043c-2.537-3.325-9.902-9.115-19.062-5.665-5.769 2.796-8.729 9.133-10.392 12.693-.536 1.148-.938 2.007-1.255 2.366-.157.178-.395.518-.718.98-2.36 3.371-9.257 13.225-22.231 13.694-7.359-.543-12.061-6.27-13.873-8.646 2.071 9.644 11.433 29.317 32.311 30.857l.16 1.547v.001c.42 4.052 1.127 10.867 1.368 15.463l3.958-15.934 3.757.277 1.445 15.436 3.942-15.711zm-20.276-16.595c4.555 3.086 9.96 4.153 15.304 3.994-2.715 1.146-6.206 2.097-10.818 2.898 14.059 5.358 24.06 2.603 33.713-10.994l-.006.002.004-.004s-.037.015-.107.04c-.064.02-.154.051-.267.088-1.29.41-5.65 1.525-8.938-.816-4.682-3.333-5.895-7.096-5.895-7.096-4.893 8.307-15.608 11.843-22.99 11.888zm30.784-26.125l5.008-5.909c-.802.09-2.465.536-3.493 1.536s-1.504 3.327-1.515 4.372zm-13.51 59.172c.158.011 2.427.328 3.542.485l-1.186 2.603-2.356-3.088zm-.61.179l.083 4.266 2.076-1.192-2.159-3.074zm-2.784 2.71l2.191-2.754-.099 4.029-2.092-1.276zm-2.785-2.672l-.955 2.171-2.801-2.448 3.756.277zm-1.367 2.365l-2.439-1.973-.032 3.136 2.471-1.163zm-2.817-2.225l-.247 3.345-1.928-.815 2.175-2.53zM59.803 271.271c-3.953-10.436-23.871-26.035-47.826-8.327l-7.442-2.727 6.187 4.09-10.158-.768 7.75 3.876c-2.304 3.491-5.346 12.353.927 19.868 4.538 4.527 11.495 5.237 15.404 5.636 1.26.128 2.204.225 2.647.406.22.09.62.203 1.162.356 3.96 1.119 15.532 4.388 20.246 16.487 1.91 7.128-1.95 13.454-3.596 15.948 8.424-5.131 23.915-20.449 18.496-40.673.408-.19.878-.411 1.4-.656l.008-.004c3.688-1.731 9.89-4.642 14.15-6.383l-16.346 1.507-.975-3.639 14.098-6.446-16.132 1.449zm-8.993 24.611c1.415-5.317.643-10.773-1.266-15.768 1.976 2.187 4.022 5.171 6.296 9.263.432-15.04-5.461-23.578-21.477-28.218l.004.004-.004-.002.049.059.221.287c.836 1.128 3.26 4.839 2.145 8.674-1.606 5.519-4.76 7.904-4.76 7.904 9.454 1.886 16.32 10.84 18.792 17.797zm-34.8-20.47l-7.227-2.785c.35.728 1.317 2.151 2.6 2.793 1.283.642 3.636.326 4.627-.008zm60.316-6.72c-.041-.153-.49-2.401-.708-3.505l2.848.263-2.14 3.242zm.37.517l4-1.483-1.809-1.568-2.191 3.051zm3.474 1.737l-3.32-1.163 3.835-1.233-.515 2.396zm-1.606 3.509l2.365.187-1.39 3.452-.975-3.639zm2.684.513l-1.061 2.952 2.972-1.001-1.912-1.951zm-1.175 3.393l3.24-.868-.135 2.089-3.105-1.221zM311.703 340.548c9.289-1.513 29.084 6.461 26.254 31.431l5.131 4.288-5.597-2.796 4.845 7.098-6.1-4.028c-1.578 3.156-6.767 9.115-14.902 7.702-5.221-1.407-8.674-6.19-10.614-8.878-.625-.867-1.093-1.515-1.413-1.763-.158-.122-.409-.367-.749-.698l-.001-.001c-2.487-2.421-9.756-9.497-20.581-7.84-6.012 1.611-9.005 7.099-10.132 9.353.195-8.318 4.849-26.096 21.906-30.666l-.112-1.306v-.002c-.291-3.423-.781-9.182-1.306-13.029l5.794 12.579 3.069-.822-1.238-13.019 5.746 12.397zm-14.184 16.95c3.287-3.275 7.598-5.012 12.052-5.724-2.431-.521-5.474-.758-9.422-.694 10.804-6.658 19.526-5.953 29.67 3.791l-.005-.001.004.002-.094-.015a18.096 18.096 0 00-.238-.032c-1.135-.135-4.921-.37-7.275 2.087-3.354 3.501-3.766 6.81-3.766 6.81-5.365-6.111-14.802-7.351-20.926-6.224zm29.631 16.792l5.081 4.105c-.678.052-2.126-.055-3.136-.721-1.01-.667-1.771-2.52-1.945-3.384zm-20.531-46.9c.129-.035 1.96-.656 2.859-.961l-1.394-1.97-1.465 2.931zm-.533-.053l-.605-3.548 1.908.66-1.303 2.888zm-2.735-1.806l2.25 1.936-.717-3.323-1.533 1.387zm-1.886 2.654l-1.134-1.649-1.935 2.471 3.069-.822zm-1.506-1.745l-1.709 2.02-.522-2.594 2.231.574zm-1.983 2.289l-.733-2.733-1.469.979 2.202 1.754z" fill="#C7A77B"/><defs><clipPath id="clip0"><path fill="#fff" d="M34.542 40.105h342.862V383H34.542z"/></clipPath></defs></svg>