<svg width="463" height="604" fill="none" xmlns="http://www.w3.org/2000/svg"><ellipse cx="236.118" cy="421.93" rx="226.628" ry="64.453" fill="#F6F8F9"/><path d="M168.525 193.262l-2.164-15.238c-2.782-2.986-6.389-4.53-9.996-4.015-7.007 1.029-11.644 9.369-10.304 18.738 1.339 9.369 8.14 16.164 15.148 15.134 4.946-.72 8.656-5.045 9.996-10.81-1.443-.721-2.371-2.059-2.68-3.809z" fill="#265682"/><path d="M140.599 202.013c-.309 2.471 2.267 4.736 5.771 5.147l7.832.927c3.4.412 6.389-1.235 6.698-3.706l2.473-22.239c.309-2.471-2.267-4.736-5.668-5.147l-7.831-.927c-3.401-.412-6.389 1.235-6.698 3.706l-2.577 22.239z" fill="#265682"/><path d="M161.003 211.587c4.637 2.059 7.007 1.442 3.4 2.883-1.752 2.059-23.495-.824-24.731-3.604-.207-.411 8.656-1.75 8.656-2.059.515-3.912.721-7.207-.31-11.634 0-.308.31-.617.619-.617 1.649 0 3.297.103 4.946.103.309 0 3.504.72 2.782 2.265-.206 4.427-.309 10.604 4.638 12.663z" fill="#FBF6F0"/><path d="M161.621 180.083c.618 0 1.133.309 1.236.721 2.711 9.251.924 16.14-.309 18.429-1.236 2.059-2.782 3.397-4.637 3.5-3.194.206-6.08-3.088-7.729-8.133-.206-.412-.309-.824-.412-1.236v-.103l-.309-1.235v-.103a77.158 77.158 0 01-.309-1.339c-2.988-10.604 8.656-10.089 12.469-10.501z" fill="#FBF6F0"/><path d="M205.314 209.837s.824.412 1.133-.206c.516-1.029.722-3.294.825-4.118 0-.927-.515-5.354-.515-5.354s-.928 1.339-.722 3.192c.412 2.471-.721 6.486-.721 6.486z" fill="#EBE4DA"/><path d="M205.417 209.219c.721-1.544.309-3.397-.618-5.559-.928-2.059-.207-3.295-.207-3.295s.722 1.236 1.855 4.53c.309.927.619 1.956.516 2.883-.104 2.986-3.401 5.354-1.546 1.441z" fill="#EBE4DA"/><path d="M165.228 426.765s-1.752-.824-6.492-1.751c-2.783-.617-4.947-.617-5.874-1.647-1.649-1.75-.515-7.207-1.34-7.001-4.018.824-5.667 10.193-3.297 11.428 2.267 1.236 15.354 1.03 16.488.927 1.03-.103.824-2.162.515-1.956z" fill="#FBF6F0"/><path d="M148.74 294.879c-5.153-.927-10.099-1.133-14.839-.721.721 6.384 1.752 13.487 3.091 21.003 5.256-6.383 16.385-3.809 18.961-.926.619-4.325 1.134-8.752 1.34-13.385.103-1.338.103-2.676.206-3.912-2.782-.824-5.668-1.544-8.759-2.059z" fill="#DCE5EA"/><path d="M117.825 249.373c-7.934 6.383-41.94 15.237-41.94 15.237s-7.317-1.853 35.757-19.87c2.267-.824 8.141 3.088 6.183 4.633z" fill="#FBF6F0"/><path d="M73.927 266.359s-2.68 1.03-3.504 2.162c-.618.824-2.576 5.251-2.576 5.251s1.649-.721 2.473-2.471c1.03-2.574 3.607-4.942 3.607-4.942z" fill="#DCE5EA"/><path d="M71.556 268.727c-1.751.412-3.09 2.163-4.121 4.428-1.03 2.162-2.474 2.573-2.474 2.573s.516-1.441 2.37-4.736a23.926 23.926 0 011.752-2.676c1.958-2.883 7.008-.721 2.474.411z" fill="#DCE5EA"/><path d="M76.606 265.227c-.309 1.236-2.267 2.677-2.164 3.501.206 2.265.928 3.5.928 3.5-2.68-.309-2.577-4.118-3.607-5.456-1.134-1.339 5.564-4.736 4.843-1.545z" fill="#DCE5EA"/><path d="M90.208 258.947c-4.637 1.235-9.995 2.471-12.262 4.118-3.195 2.368-3.71 5.045-6.39 5.663-.308.103-.515.206-.824.309-.721.308-1.648.514-1.958.617-.309.206-1.236.824-.927.412 2.164-3.5 5.05-7.207 5.874-7.619 1.855-.926 12.056-5.971 16.178-7.001 4.74-1.132 6.595 1.854.31 3.501z" fill="#DCE5EA"/><path d="M71.557 268.316s-.31-.927-1.03-.824c-1.237.309-3.299 1.751-4.02 2.368-.824.618-4.019 4.222-4.019 4.222s1.752-.206 3.092-1.648c1.855-2.162 5.977-4.118 5.977-4.118z" fill="#DCE5EA"/><path d="M174.193 227.649c4.225 3.088 8.038 14.105 10.923 21.106 1.649 3.912 1.031 6.898 1.031 6.898s-1.443 9.163-12.469-15.855c-2.68-6.384-1.031-13.385.515-12.149z" fill="#FBF6F0"/><path d="M182.643 255.241c.103-9.266 16.694-33.666 16.694-33.666s8.759-7.413-7.213 28.518c-4.741 10.708-9.481 7.413-9.481 5.148z" fill="#FBF6F0"/><path d="M205.417 207.47l.721.412.516 2.882s-1.237 5.045-2.473 6.795c-1.134 1.751-2.886 9.472-3.401 10.399-.515.823-5.05.823-5.05.823s3.71-7.412 4.947-10.398c1.236-3.089 1.443-8.031 1.855-9.163.721-2.059 1.03-3.192 1.03-3.192s1.031.515.103 3.81c-.206.823.825.72.825.72l.927-3.088zM165.228 325.044c-1.855-1.029-5.256 1.339-7.626 5.869-4.74 9.06-6.389 21.517-7.522 36.961-1.134 16.267-1.443 28.518-1.34 38.505 0 9.987-4.431 23.783 3.092 22.547-.619-13.693 1.958-33.872 6.183-44.477 14.426-35.828 12.881-56.316 7.213-59.405zM145.339 354.593c-1.648-.618.206-6.281-2.988-2.574-5.153 6.074-9.893 19.767-10.82 27.283-1.546 11.84-4.225 30.578-4.947 38.505-.618 7.207-4.121 15.752 2.268 14.517 0-10.09 4.225-24.709 7.419-32.637 10.923-26.665 14.015-43.138 9.068-45.094z" fill="#FBF6F0"/><path d="M139.569 433.663c-1.958 2.162-9.481-.927-11.542-1.442-3.709-.926-3.297-2.265-3.4-2.162-.412 1.236-.928 2.883 1.133 3.81 1.855.823 4.225 1.029 6.08 1.647 1.958.721 12.984 3.397 13.706 2.059 1.03-1.75-5.977-4.015-5.977-3.912z" fill="#828C94"/><path d="M154.099 276.861c-2.783-.721-2.989 1.339-5.359 6.486-4.637 10.09-7.935 25.019-7.728 41.183.309 18.84 2.988 35.416 6.801 45.815 4.328-7.31 7.213-11.531 10.511-27.901 7.213-36.344 4.328-63.421-4.225-65.583z" fill="#FBF6F0"/><path d="M166.258 243.503l-29.059-.205-3.607-33.255 34.521 3.192-1.855 30.268z" fill="#EBE4DA"/><path d="M130.603 343.473c16.488-2.368 32.873-4.839 49.361-7.207 1.855 0-10.614-30.269-13.706-93.072-9.789-.205-19.579-.411-29.369-.514 2.37 12.251-22.361 34.387-6.286 100.793zM118.341 248.755l16.385-24.401 4.225-11.016c-.31-.927-.928-1.75-1.752-2.265l-.515-.412c-2.164-1.338-5.153-.412-6.699 2.059l-18.858 30.99 7.214 5.045zM177.903 251.637l-9.996-21.311-4.019-14.826c.515-.721 1.237-1.339 2.164-1.647l.618-.206c2.371-.927 5.05.309 5.977 2.677l12.057 29.342-6.801 5.971z" fill="#EBE4DA"/><path d="M151.935 420.896c0 .103.103.206.206.206h.309a.222.222 0 00.206-.206.222.222 0 00-.206-.206h-.309c-.103.103-.206.103-.206.206z" fill="#fff"/><path d="M162.549 425.838c.721 3.089-8.863 1.75-11.336.824-2.37-.824-3.916-1.133-3.916-1.133h-.309v.206c0 1.75-.824 4.015 1.958 4.015l17.209.309c14.015.309-3.606-4.221-3.606-4.221z" fill="#828C94"/><path d="M205.623 210.97s.824-2.574.412-3.81c-.309-.926-2.267-4.839-2.267-4.839s-.412 1.648.412 3.192c1.134 2.368 1.443 5.457 1.443 5.457z" fill="#FBF6F0"/><path d="M204.386 210.455s-.721.206-1.03-.103c0 .206 0 .515.103.721 0 .412-.206 3.398-.206 3.398s.618-2.162.927-2.677c.206-.412.413-1.236.619-1.956v-.412l-.413 1.029z" fill="#EBE4DA"/><path d="M203.562 209.734c.618-2.265.412-3.191.103-3.603-.103.515-.412 1.338-.825 2.574a17.544 17.544 0 00-.412 2.368c0 .206.722.412 1.031 2.162.103.309.618-1.648.721-2.78-.206 0-.824-.103-.618-.721z" fill="#EBE4DA"/><path d="M155.335 195.732c-1.443-.824-2.37-2.265-2.679-3.912l-2.164-15.238-.412-.412h-.31c-3.4-.411-6.389 1.236-6.698 3.707l-2.473 22.135c-.206 1.853 1.237 3.707 3.504 4.53.412 0 .824 0 1.133-.103 5.05-.617 8.759-4.941 10.099-10.707z" fill="#265682"/><path d="M83.613 247.107h-5.256v2.677c1.134-1.647 3.092-2.677 5.256-2.677zM85.159 247.107v7.413a6.462 6.462 0 01-6.492 6.486h-.31v11.326h23.083v-25.225H85.159z" fill="#DCE5EA"/><path d="M67.434 383.729c-1.752 0-4.534-.412-6.904-2.471-3.504-2.986-5.05-8.442-4.534-16.061.309-5.148 2.37-10.296 4.534-15.855 3.607-9.266 7.728-19.768 5.564-33.667l4.02-.617c2.266 14.928-2.165 26.459-5.771 35.725-2.164 5.457-3.916 10.09-4.225 14.62-.413 6.177.618 10.604 3.091 12.663 2.267 2.059 5.153 1.545 5.359 1.442l.824 3.912c-.31.206-.927.309-1.958.309z" fill="#272B2E"/><path d="M98.246 415.542l3.916 5.971-32.873 10.502s-2.164-2.059 5.874-6.28c9.377-4.942 23.083-10.193 23.083-10.193z" fill="#99A3AB"/><path d="M104.016 415.542l-3.915 5.971 32.872 10.502s2.164-2.059-5.874-6.28c-9.377-4.942-23.083-10.193-23.083-10.193z" fill="#99A3AB"/><path d="M104.532 397.628h-6.905v24.606h6.905v-24.606z" fill="#99A3AB"/><path d="M97.73 416.574l3.298 5.663-28.133 9.986s-1.854-1.956 5.05-5.971c8.14-4.736 19.785-9.678 19.785-9.678zM104.428 416.574l-3.297 5.663 28.132 9.986s1.855-1.956-5.049-5.971c-8.038-4.736-19.786-9.678-19.786-9.678z" fill="#D7DBDE"/><path d="M76.193 434.795c0 1.338-1.03 2.368-2.37 2.368s-2.37-1.03-2.37-2.368c0-1.339 1.03-2.368 2.37-2.368 1.236 0 2.37 1.029 2.37 2.368zM130.603 434.795c0 1.338-1.03 2.368-2.37 2.368s-2.37-1.03-2.37-2.368c0-1.339 1.03-2.368 2.37-2.368s2.37 1.029 2.37 2.368z" fill="#161711"/><path d="M70.422 434.795c0 1.338-1.03 2.368-2.37 2.368s-2.37-1.03-2.37-2.368c0-1.339 1.03-2.368 2.37-2.368 1.237 0 2.37 1.029 2.37 2.368zM136.374 434.795c0 1.338-1.031 2.368-2.371 2.368-1.339 0-2.37-1.03-2.37-2.368 0-1.339 1.031-2.368 2.37-2.368 1.34 0 2.371 1.029 2.371 2.368z" fill="#484F59"/><path d="M103.604 388.877h-5.05v8.751h5.05v-8.751z" fill="#272B2E"/><path d="M107.314 384.244c0 2.676-2.164 4.839-4.946 4.839h-2.782c-2.68 0-4.947-2.163-4.947-4.839 0-2.677 2.164-4.942 4.947-4.942h2.782c2.782.103 4.946 2.265 4.946 4.942z" fill="#272B2E"/><path d="M138.331 379.817c.103-.618.206-4.221.206-4.839 0-3.912-2.576-7.104-5.667-7.104H69.289c-3.195 0-5.668 3.192-5.668 7.104 0 .618.103 4.221.206 4.839h74.504z" fill="#D6BB96"/><path d="M62.9 381.772c0 1.236.721 2.162 1.546 2.162h72.958c.824 0 1.546-1.029 1.546-2.162 0-1.235-.722-2.162-1.546-2.162H64.446c-.825 0-1.546.927-1.546 2.162z" fill="#272B2E"/><path d="M66.507 343.165c1.546.103 11.541.309 13.293.309 10.923.103 20.301-1.957 20.816-4.633a92.985 92.985 0 00.309-33.77c-.412-2.677-9.996-4.736-21.125-4.633-1.752 0-11.953.206-13.5.309 3.298 14.002 3.401 28.519.207 42.418z" fill="#D6BB96"/><path d="M64.961 300.85c-1.236 0-2.06.617-1.855 1.338 2.989 13.075 3.195 26.665.31 39.741-.104.721.72 1.235 1.854 1.338 1.237 0 2.267-.515 2.474-1.235 2.885-13.076 2.782-26.666-.31-39.844-.103-.824-1.236-1.338-2.473-1.338z" fill="#272B2E"/><path d="M65.27 342.856c.31.103 2.473.205 2.886.205 2.37 0 4.843-2.059 5.255-4.735 1.958-11.017 1.958-22.239-.103-33.255-.515-2.677-2.989-4.736-5.462-4.736-.412 0-2.576.103-2.885.206 3.4 14.002 3.504 28.416.31 42.315z" fill="#C7A77B"/><path d="M97.731 263.168s-9.068 3.191-.31 29.136c8.657 25.842 14.428 22.753 14.428 22.753l7.213-.72 13.809-16.267-7.42-6.487-1.546.618s-1.958-.823-2.164-2.574c-.206-1.75-3.709-9.266-6.286-24.4-1.236-7.104-15.972-2.677-17.724-2.059z" fill="#D7DBDE"/><path d="M130.912 298.379s17.828 9.06 29.06-8.546c3.298-5.25 1.958.824.103 6.487-1.855 5.765-12.881 18.738-25.556 19.561-12.572.824-17.415.206-19.785-4.221-2.37-4.221 16.178-13.281 16.178-13.281z" fill="#C7A77B"/><path d="M115.558 294.261l4.534-2.883 1.855-1.029c.515 1.338 1.958 1.956 1.958 1.956l-3.813 1.544-4.122 2.677-4.225 5.148 3.813-7.413z" fill="#99A3AB"/><path d="M114.424 337.604l-33.8-.72-14.014-46.948s-6.39-28.313 5.564-28.828c17.416-.72 40.396-.411 40.396-.411s11.747 10.192 1.854 76.907z" fill="#D7DBDE"/><path d="M102.368 335.032l4.019.617c2.164-24.709-.103-49.727-6.698-73.613-1.03.309-2.164.721-3.195 1.03 6.08 23.474 8.141 47.874 5.874 71.966z" fill="#99A3AB"/><path d="M170.071 437.369s-3.298 5.045-4.947 1.956c-5.049-9.266-9.583-38.711-9.892-50.757-.413-16.061-1.134-25.945-1.134-25.945l16.179-5.868-.206 80.614z" fill="#265682"/><path d="M113.291 337.296l57.192 19.562-14.942 8.339s-58.944 10.296-59.974-11.531c-1.03-18.429 17.724-16.37 17.724-16.37z" fill="#265682"/><path d="M149.77 437.883s-2.988 2.677-4.637-.411c-5.05-9.266-13.293-34.079-13.603-46.124-.412-16.062 2.267-27.284 2.267-27.284l16.591-5.765-.618 79.584z" fill="#265682"/><path d="M95.567 337.913l54.513 20.591-14.943 8.134S79.8 376.933 78.77 355.107c-1.134-21.93 16.797-17.194 16.797-17.194z" fill="#265682"/><path d="M77.74 356.24c-.104 1.544.72 6.486 2.37 8.545 5.152 6.178 17.414 4.119 27.101 4.119.515 0 3.298-7.619 3.298-7.619l4.018-24.812-34.212.617c.103 0-1.34 6.59-2.576 19.15z" fill="#265682"/><path d="M133.283 322.059l12.469-2.265s1.958-.206 2.061 1.132c.103 1.75-.207 7.619-.207 7.619l-2.267-1.339-3.194 1.957-3.71-4.942s-1.958.412-3.504 0c-.618-.309-1.648-2.162-1.648-2.162zM102.574 318.455l33.079 3.706s-17.725 9.061-25.866 9.164c-8.14.102-15.766-1.854-15.766-1.854l8.553-11.016z" fill="#C7A77B"/><path d="M86.292 284.171l16.591 31.299-.927 2.573 2.576.515-7.729 12.252-12.16-2.78-21.846-43.138s-4.637-13.076 5.77-22.959c5.153-5.045 16.18 19.767 17.725 22.238z" fill="#EBEFF2"/><path d="M100.925 239.282a4.132 4.132 0 01-4.122 4.118H81.346a4.132 4.132 0 01-4.122-4.118 4.132 4.132 0 014.122-4.118h15.457a4.132 4.132 0 014.122 4.118z" fill="#EBE4DA"/><path d="M98.04 246.386c0 4.221-3.4 7.516-7.523 7.516H82.48a7.495 7.495 0 01-7.523-7.516c0-4.221 3.4-7.516 7.523-7.516h8.037c4.122-.103 7.523 3.295 7.523 7.516z" fill="#EBE4DA"/><path d="M104.12 258.432v-23.679c0-3.81-3.092 0-6.801 0h-3.607a6.791 6.791 0 00-6.801 6.795v16.781h17.209v.103z" fill="#C7A77B"/><path d="M89.9 246.901a2.989 2.989 0 01-5.978 0 2.989 2.989 0 012.989-2.986c1.546 0 2.988 1.338 2.988 2.986zM102.162 251.02c0 .926.721 1.75 1.649 1.75h1.443c.927 0 1.648-.824 1.648-1.75 0 0-3.091-8.958-4.019-8.958 0 0-.721.824-.721 1.751v7.207z" fill="#C7A77B"/><path d="M94.536 257.197c-6.801 0-7.522-2.059-7.728-4.53 0 0-1.855 5.971-1.855 7.928v2.162c0 4.118 4.328 7.515 9.583 7.515h9.584v-13.075h-9.584z" fill="#EBE4DA"/><path d="M104.12 252.77h-5.462c-2.473 0-4.534 2.059-4.534 4.53 0 .411.103.823.206 1.132h9.893v-5.662h-.103z" fill="#EBE4DA"/><path d="M97.112 257.506v1.544c0 .412.31.721.722.721h4.431a.704.704 0 00.721-.721v-1.544h-5.874z" fill="#C7A77B"/><path d="M101.75 230.634H87.735a2.66 2.66 0 00-2.68 2.677v5.456h16.695v-8.133z" fill="#EBE4DA"/><path d="M110.406 234.649a4.133 4.133 0 01-4.122 4.119h-9.48a4.133 4.133 0 01-4.123-4.119 4.132 4.132 0 014.122-4.118h9.481a4.132 4.132 0 014.122 4.118zM90.517 236.812h-3.812v9.986h3.812v-9.986z" fill="#EBE4DA"/><path d="M90.415 244.43a5.648 5.648 0 015.667-5.662h2.886c3.091 0 4.74 2.471 4.74 5.662a5.649 5.649 0 01-5.668 5.663h-2.06c-2.99-.103-5.565-2.574-5.565-5.663zM158.633 296.011s-2.68-6.384-1.752-8.134c.927-1.75 4.946-7.928 4.946-7.928l1.134-1.441s2.37.309-.31 4.427c-2.679 4.118-.309 2.78-.309 2.78l3.916-2.78 5.05-3.088 2.06-1.648s1.134-1.029 1.546-1.029c1.34-.103.928 1.029.928 1.029l-7.42 7.001 8.656-4.633s1.237-.412 1.649.103c.412.515.103.721.103.721l-8.553 7.516 4.74-1.957s1.237-.411 1.649.103l.618.618-17.415 9.678-1.236-1.338z" fill="#C7A77B"/><path d="M169.659 286.436l6.286-2.883s1.339-.824 2.164-.824a.979.979 0 011.03.824l-9.068 5.354-.412-2.471z" fill="#C7A77B"/><path d="M155.129 442.826c.309.514.103 1.75.103 1.75s-5.153.823-6.698.309c-.413-.103-1.134-.618-1.855-1.133-.103-.103-.309-.618-.413-.721-.206-.205-.309.103-.515 0l-.721-.72c-.412-3.192.206-4.427.206-4.427s4.328-2.059 5.152-.618c1.752 3.089 4.122 4.53 4.741 5.56zM164.609 438.81l.722 4.633h3.916s.206-.618.515-.618c.309 0 .618.618 1.03.618h9.79s.206-.927 0-1.339c-.103-.206-.721-.515-1.237-.617-1.958-.721-8.037-2.163-9.377-4.325-1.031-1.647-5.359 1.648-5.359 1.648z" fill="#272B2E"/><path d="M133.798 328.853s-.103-.103 0 0v-1.647h67.084v1.75l-.206.309c-.824 1.442-2.37 1.647-4.225 1.647h-58.428c-1.752 0-3.298-.205-4.225-1.647v-.412z" fill="#99A3AB"/><path d="M150.708 327.206l8.656-32.946c.206-.823 1.133-1.544 1.958-1.544h47.093c.824 0 1.339.721 1.133 1.544l-8.656 32.946h-50.184zM267.761 443.958h6.801l-11.335-109.647h-9.893l14.427 109.647zM195.627 443.958h-6.904l11.335-109.647h9.996l-14.427 109.647zM117.31 443.958h6.801l-11.336-109.647h-9.892l14.427 109.647zM45.176 443.958h-6.904l11.335-109.647h9.996L45.176 443.958z" fill="#D7DBDE"/><path d="M272.604 330.707H40.024v6.383h232.58v-6.383z" fill="#D7DBDE"/><path d="M272.501 330.707H118.958v6.383h153.543v-6.383z" fill="#EBEFF2"/><path d="M389.568 150.3s4.785 7.052-3.948 15.179c-14.834 13.865-33.976 21.515-37.565 23.068-3.708 1.554-14.954 4.184-18.662-.717-3.828-5.02 7.776-14.223 7.776-14.223s13.04-7.172 24.764-14.582c11.604-7.53 27.635-8.725 27.635-8.725z" fill="#D6BB96"/><path d="M311.687 136.556s14.356-7.172 15.552-3.586c5.264 15.777 13.279 32.749 14.236 36.694.838 3.944 1.316 15.418-4.306 18.167-5.623 2.749-12.442-10.398-12.442-10.398s-4.546-14.104-9.571-27.013c-5.263-12.908-3.469-13.864-3.469-13.864z" fill="#D6BB96"/><path d="M376.288 149.941c.359 4.183 2.632 7.769 4.905 7.888h6.7c2.392-.119 4.546-3.705 4.904-7.888.599-6.813 1.077-13.626 1.675-20.558.359-4.064-1.196-12.311-4.785-14.821-3.23-2.152-6.939-2.152-10.169 0-3.589 2.39-5.144 10.637-4.785 14.821.479 6.932.957 13.745 1.555 20.558zM427.491 218.786l-17.825 29.045s26.558-12.789 25.242-24.622c-1.316-11.833-7.417-4.423-7.417-4.423z" fill="#FBF6F0"/><path d="M386.098 251.774s-9.929 47.212-20.337 72.192c-9.212 22.112-19.979-6.693-19.979-6.693l16.749-85.818 27.635-2.151c.119 0 2.033.717-4.068 22.47z" fill="#265682"/><path d="M383.825 229.543l-3.35 36.694 4.785 2.868s2.752 54.503 3.709 57.372c5.144 15.777 18.663 6.335 20.457 1.076 1.795-5.259 4.905-44.224 4.307-72.671l-.598-28.446-29.31 3.107z" fill="#265682"/><path d="M359.66 160.818l17.825-9.084 4.785 1.913 13.758-1.435 21.414 7.291s4.307 5.618.478 25.937c-3.828 20.2-4.187 52.71-4.187 52.71l-53.236 3.108c-.119 0-7.178-84.862-.837-80.44z" fill="#D6BB96"/><path d="M408.23 160.34s7.298-6.215 15.552 5.259c12.442 17.092 19.739 36.933 21.055 40.877 1.316 3.944 3.23 15.777-2.273 19.363l-5.503 3.466-12.202-7.171 2.153-3.825 1.436-1.793s-6.46-14.104-13.279-26.773c-6.939-12.67-6.939-29.403-6.939-29.403z" fill="#D6BB96"/><path d="M381.433 153.168l3.349 6.574 10.648-7.769-2.034-3.705-11.963 4.9zM375.69 148.507l4.786 4.661-4.666 5.618-2.632-7.172 2.512-3.107z" fill="#C7A77B"/><path d="M408.349 417.674c.479.597.12 2.271.12 2.271s-8.255 1.075-10.886.358c-.718-.239-1.795-.836-2.991-1.554-.24-.119-.479-.836-.718-.956-.359-.239-.479.12-.837 0-.718-.478-1.197-.956-1.197-.956-.718-4.183.239-5.976.239-5.976s7.059-2.63 8.375-.837c3.11 4.303 6.938 6.215 7.895 7.65zM349.73 408.351l-1.196 6.813h-6.7s-.359-.956-.957-.956c-.478 0-1.076.956-1.794.956h-16.988s-.359-1.434.12-1.912c.239-.239 1.316-.717 2.033-.956 3.47-1.076 13.28-4.184 15.074-7.65 2.034-4.183 10.408 3.705 10.408 3.705z" fill="#828C94"/><path d="M390.046 312.014s-2.273 10.279-1.914 29.881c.239 12.311 1.316 45.061 3.469 69.443.12 1.435 11.604.359 11.604.359s6.939-79.125 7.657-94.424c.119-4.542-11.605-16.135-20.816-5.259zM350.448 315.959s3.589-1.434 13.398 1.434c6.46 1.793-13.159 92.034-13.159 92.034l-14.476-5.259 9.93-89.165 4.307.956zM383.585 109.781V105h-10.168a6.175 6.175 0 00-6.221 6.215v2.867c0 1.057.857 1.914 1.914 1.914h8.255c3.349.12 6.22-2.749 6.22-6.215z" fill="#265682"/><path d="M393.396 138.586c0 3.108-2.513 5.498-5.503 5.498h-12.562a5.486 5.486 0 01-5.503-5.498v-25.1c0-3.107 2.512-5.498 5.503-5.498h12.562c3.11 0 5.503 2.51 5.503 5.498v25.1z" fill="#FBF6F0"/><path d="M378.628 133.252c-1.546-.526-1.864-1.815-1.777-2.508a.434.434 0 01.169-.304c1.735-1.478 2.035-4.051 2.04-4.066a.482.482 0 01.524-.429.49.49 0 01.43.524c-.006.113-.33 2.809-2.205 4.551.033.389.254 1.285 1.783 1.476.266.041.451.269.41.534a.467.467 0 01-.533.409 4.602 4.602 0 01-.841-.187z" fill="#EBE4DA"/><path d="M383.945 105.119c2.153 0 4.067 1.076 5.263 2.869h2.154c2.632 0 4.785 2.151 4.785 4.781v8.602c0 1.85-1.5 3.35-3.35 3.35v-4.9c0-1.913-1.555-3.347-3.349-3.347H379.04a6.175 6.175 0 01-6.221-6.215v-5.14h11.126z" fill="#265682"/><path d="M391.721 127.829a2.96 2.96 0 012.99-2.988h.24a2.96 2.96 0 012.991 2.988v3.586a2.96 2.96 0 01-2.991 2.988h-.359a3.024 3.024 0 01-2.752-1.793" fill="#FBF6F0"/><path d="M326.761 158.667l2.632-7.291 9.929 253.032h-2.871l-9.69-245.741z" fill="#D7DBDE"/><path d="M296.135 287.155h43.067l-6.101-156.337h-43.067l6.101 156.337zM228.423 260.501l-3.828-4.422L210 412.297h4.307l14.116-151.796z" fill="#D7DBDE"/><path d="M314.08 260.501l-3.948-4.422-14.476 156.218h4.187l14.237-151.796z" fill="#D7DBDE"/><path d="M318.147 287.155H215.383l14.595-156.337h102.645l-14.476 156.337z" fill="#265682"/><path fill-rule="evenodd" clip-rule="evenodd" d="M276.208 218.41c5.871-.157 17.074-7.353 12.424-22.327l2.645-3.227-3.105 2.367 2.142-4.916-3.269 3.181c-1.336-1.751-5.213-4.798-10.034-2.982-3.036 1.471-4.594 4.806-5.47 6.68-.282.604-.493 1.056-.66 1.245-.083.093-.208.272-.378.515-1.242 1.774-4.872 6.96-11.701 7.207-3.874-.286-6.349-3.3-7.303-4.55 1.091 5.075 6.019 15.428 17.008 16.239l.084.814v.001c.222 2.132.594 5.719.721 8.138l2.083-8.386 1.977.146.761 8.124 2.075-8.269zm-10.673-8.734c2.397 1.624 5.242 2.186 8.055 2.102-1.429.603-3.266 1.104-5.694 1.525 7.4 2.82 12.664 1.37 17.745-5.785l-.003.001.002-.002-.052.019-.15.05c-.686.216-2.973.797-4.699-.432-2.465-1.754-3.103-3.734-3.103-3.734-2.576 4.372-8.215 6.233-12.101 6.256zm16.203-13.749l2.636-3.109c-.422.047-1.297.282-1.838.808-.541.526-.792 1.751-.798 2.301zm-7.111 31.142c.083.006 1.278.173 1.865.255l-.625 1.37-1.24-1.625zm-.321.094l.044 2.245 1.093-.627-1.137-1.618zm-1.465 1.426l1.153-1.449-.052 2.12-1.101-.671zm-1.466-1.406l-.503 1.142-1.474-1.288 1.977.146zm-.719 1.244l-1.284-1.038-.017 1.65 1.301-.612zm-1.483-1.171l-.13 1.76-1.015-.428 1.145-1.332z" fill="#fff" fill-opacity=".25"/><path d="M326.878 129.225c-.957 1.434-.837 1.434-.837 1.434s-2.153-.836-4.187 0c-.957.359-4.068 2.032-4.068 2.032l-4.546 2.391-2.034 1.314s-1.076.837-1.555.837c-1.196 0-.718-.956-.718-.956l7.298-5.737-8.135 3.466s-1.077.239-1.436-.239c-.358-.478 0-.598 0-.598l8.255-6.095-4.426 1.314s-1.077.239-1.436-.239-.478-.597-.478-.597l8.613-3.945c0 .12 10.647 4.184 9.69 5.618z" fill="#FBF6F0"/><path d="M315.156 129.464l-5.861 2.152s-1.316.597-2.034.478c-.838-.12-.838-.837-.838-.837l8.614-4.064.119 2.271z" fill="#FBF6F0"/><path d="M171.291 144.679c-1.728-.998-3.854-.844-5.528-.108-.199-1.818-1.13-3.736-2.857-4.733-2.85-1.646-6.467-.717-8.078 2.073a5.848 5.848 0 00-.417.896l-.001.001c-3.355 5.811 3.329 15.661 3.329 15.661s11.784 1.016 15.227-4.947l.001-.002c.208-.249.399-.519.566-.809 1.612-2.791.607-6.387-2.242-8.032zM90.29 183.45c-3.242.868-5.588 3.58-6.703 6.446-2.4-1.925-5.787-3.1-9.029-2.231-5.346 1.432-8.543 6.838-7.14 12.074a9.66 9.66 0 00.568 1.561v.003c2.922 10.903 22.587 14.668 22.587 14.668s15.225-12.807 12.227-23.996l-.001-.003a9.692 9.692 0 00-.288-1.637c-1.403-5.235-6.875-8.318-12.221-6.885z" fill="#FF685D"/></svg>