<svg width="460" height="422" fill="none" xmlns="http://www.w3.org/2000/svg"><g clip-path="url(#clip0)"><mask id="a" maskUnits="userSpaceOnUse" x="0" y="98" width="460" height="219"><path d="M102.305 295.657c-46.13-16.315-72.544 3.089-79.984 14.831L0 284.533l16.12-176.119 419.14-9.888c11.367 72.508 31.746 217.647 22.321 218.141-11.78.618-47.742-6.179-84.944-24.718-37.201-18.539-83.704-20.393-119.045-7.416-35.342 12.978-93.625 31.516-151.287 11.124z" fill="#C4C4C4"/></mask><g mask="url(#a)"><path d="M288.33 119.383s-16.61-7.264-24.898 9.402c-8.288 16.665-12.382 36.103-7.533 44.352 4.832 8.249 20.989 5.828 20.989 5.828s19.395 3.924 27.029-4.375c7.617-8.316 4.026-50.631-15.587-55.207z" fill="#265682"/><path d="M287.491 175.392l3.322 3.957-4.043 13.009-15.754 14.411-4.681 2.104s-5.034-9.869-5.034-10.704c0-.835-.839-12.441-.839-12.441l1.125-5.043 3.036-3.39 5.604-3.223 5.235-.701 12.029 2.021z" fill="#C7A77B"/><path d="M288.28 185.611l-21.425 20.523-1.695-22.761-23.287 44.97v38.09h31.743l17.197-65.977-2.533-14.845z" fill="#265682"/><path d="M293.632 311.269H236l7.953-48.76 42.061 3.924 7.618 44.836z" fill="#265682"/><path d="M289.404 177.579s16.157 8.416 20.301 14.495c4.127 6.078 13.909 47.608 10.906 57.711-3.004 10.103-12.399 10.854-12.399 10.854l-3.154 50.631h-40.686l3.993-58.112-7.903-2.622 6.762-18.352 9.563.785 12.617-55.39zM270.227 174.056s-19.731 53.653-21.425 72.172c-1.695 18.519-7.047 65.042-7.047 65.042h-24.093l13.54-84.947-23.154-1.653-6.476-28.405s35.385-13.175 45.82-17.383c10.436-4.208 22.835-4.826 22.835-4.826z" fill="#EBE4DA"/><path d="M276.804 233.152a.203.203 0 01-.201-.2c0-.1.083-.2.201-.2 7.802-.017 22.969-.318 24.479-1.303 1.375-.885.704-13.66-.084-22.026-.017-.1.067-.2.184-.217.101-.016.202.067.218.184.202 2.154 1.93 21.107-.084 22.393-2.03 1.303-23.79 1.369-24.713 1.369z" fill="#FBF6F0"/><path d="M241.067 245.042h14.882l-7.08-1.837h-.722l-7.08 1.837z" fill="#F6F8F9"/><path d="M249.087 226.089h-1.158v17.35h1.158v-17.35z" fill="#F6F8F9"/><path d="M252.392 207.369h-7.684v15.513a3.778 3.778 0 003.791 3.774h.084a3.779 3.779 0 003.792-3.774v-15.513h.017z" fill="#F6F8F9"/><path d="M248.483 226.089c1.769 0 3.192-1.52 3.192-3.407v-13.827h-6.368v13.827c0 1.887 1.424 3.407 3.176 3.407z" fill="#FF685D"/><path d="M306.517 260.889c-11.845 0-37.951-7.481-38.22-7.565-.1-.033-.168-.133-.134-.233.034-.101.134-.167.235-.134.285.083 29.025 8.316 39.78 7.481.117-.017.201.067.218.184.017.1-.067.2-.184.217-.521.033-1.091.05-1.695.05z" fill="#FBF6F0"/><path d="M265.16 237.745s-4.581-6.379-6.745-8.316c-2.164-1.937-2.819-5.427-4.312-4.626-1.493.802.856 5.861.856 5.861s-5.738-1.519-7.416-2.254c-1.694-.735-5.05-1.269-5.688-.083-.637 1.185 7.735 4.141 7.735 4.141s-4.161-1.253-4.983-.267c-.822.968 4.983 4.058 4.983 4.058s-4.278-1.604-5.05-1.253c-.772.351-.352 1.319 2.181 2.789 2.517 1.469 2.08 1.636 2.08 1.636s-2.399-1.302-3.12-1.202c-.705.083-.957 1.52 3.003 3.306 3.96 1.787 8.842 3.674 13.942 3.04l2.534-6.83z" fill="#C7A77B"/><path d="M265.311 146.652s-1.325-2.204-2.483-1.386c-2.97 2.087 0 5.177 1.879 5.895l.604-4.509z" fill="#EA6868"/><path d="M284.572 119.367c8.758.968 15.503 8.449 15.553 17.216a17.375 17.375 0 01-1.862 7.982c-2.702 5.962-4.916 10.771-7.567 14.211-2.685 3.49-4.044 7.815-3.624 12.207l.419 4.425c-10.436 4.609-14.664-.668-14.664-.668l.47-10.153c-10.972-1.82-8.556-22.009-8.271-27.987h.017c0-.217 0-.451.016-.685.47-10.019 9.329-17.684 19.513-16.548z" fill="#C7A77B"/><path opacity=".2" d="M287.693 145.116a.618.618 0 00.486-.234.63.63 0 00-.084-.885c-.083-.067-2.046-1.62-4.882-1.486a.637.637 0 00-.604.668c.017.351.352.618.671.601 2.366-.117 3.993 1.186 4.01 1.186a.475.475 0 00.403.15zM272.257 141.776a.646.646 0 00.436-.317.638.638 0 00-.252-.868c-.083-.05-2.281-1.236-5.066-.585a.637.637 0 00-.47.769.647.647 0 00.771.467c2.316-.534 4.145.451 4.161.451.118.083.269.1.42.083zM275.411 152.564c-1.795-.351-2.332-1.737-2.349-2.522 0-.133.051-.267.135-.367 1.711-1.887 1.678-4.793 1.678-4.809 0-.301.234-.535.52-.552.285 0 .537.234.553.518 0 .134.051 3.156-1.795 5.36.084.418.47 1.386 2.198 1.386a.53.53 0 01.537.535c0 .3-.235.534-.537.534-.352 0-.654-.033-.94-.083z" fill="#272B2E"/><path d="M284.085 130.004s-6.879 5.126-12.835 9.802c-5.956 4.676-4.379 23.312-4.379 23.312l-6.392-15.964s2.047-31.244 24.076-27.787c22.046 3.456 16.291 25.549 12.684 30.141-3.607 4.609-3.775 1.086-3.775 1.086s-8.758-16.332-9.379-20.59z" fill="#265682"/><path d="M292.692 149.191c.302-.551.822-.952 1.426-1.169 1.225-.434 3.389-.868 4.799.668 2.047 2.237-2.534 7.715-6.695 4.709-.016 0-1.174-1.269.47-4.208z" fill="#C7A77B"/><path d="M217.344 230.33v59.715l-6.795.919-9.262-47.676-4.614-7.648 20.671-5.31z" fill="#FBF6F0"/><path d="M216.505 287.057s4.53 5.21 5.755 7.464c1.224 2.254 4.077 3.523 3.087 4.626-.99 1.102-4.866-1.954-4.866-1.954s.118 5.193.403 6.78c.285 1.586.05 4.558-1.108 4.859-1.157.3-1.963-7.448-1.963-7.448s.034 6.58-.973 7.081c-1.006.5-2.281-7.866-2.281-7.866s.385 7.014-.068 7.598c-.453.585-1.208.017-1.946-2.421-.738-2.455-.855-5.143-.855-5.143s-.101 4.943-.319 5.544c-.218.584-.957 1.235-1.661-2.505-.705-3.741-.923-12.09.671-16.315l6.124-.3z" fill="#FBF6F0"/><path d="M203.334 283.266v28.004h-72.463l1.694-33.615 70.769 5.611z" fill="#265682"/><path d="M182.781 166.541s23.086 8.6 27.214 14.594c4.127 5.979 11.09 55.006 11.09 55.006h-15.771l.184 49.379s-34.025 11.222-75.181-1.687l1.694-64.958-8.439-8.049s13.708-38.858 22.734-40.912c9.027-2.054 22.633-4.325 22.633-4.325l13.842.952z" fill="#D6BB96"/><path d="M129.042 216.053s-7.751 23.161 3.523 30.175c11.275 7.013 59.964-11.94 59.964-11.94l-2.013-7.815s-43.857 3.69-46.961 1.336c-3.087-2.338-14.513-11.756-14.513-11.756z" fill="#FBF6F0"/><path d="M199.844 237.461H214.743l-7.08-1.837h-.739l-7.08 1.837z" fill="#F6F8F9"/><path d="M207.881 218.508h-1.158v17.35h1.158v-17.35z" fill="#F6F8F9"/><path d="M215.833 204.381h-17.096v6.646c0 4.692 3.825 8.5 8.54 8.5 4.714 0 8.54-3.808 8.54-8.5v-6.646h.016z" fill="#F6F8F9"/><path d="M207.294 218.608c-4.312 0-7.819-3.49-7.819-7.782v-4.709h15.62v4.709c.017 4.309-3.49 7.782-7.801 7.782z" fill="#FF685D"/><path d="M200.646 216.059c.184-1.653-2.534-3.373-2.064-4.96-.034-.951-.067-1.903-.034-2.855a7.898 7.898 0 01.235-1.687c-1.778.418-4.664.802-4.664.802s6.829-3.557 5.553-4.492c-1.258-.935-6.308 1.386-8.573 2.889-2.265 1.503-8.724 6.729-8.724 6.729l2.315 6.496c4.11 1.119 9.161.752 12.986-.133-.168-.952 2.869-1.821 2.97-2.789z" fill="#EBE4DA"/><path d="M50.619 267.709s2.516 6.429 2.902 8.95c.386 2.522 2.651 4.676 1.343 5.394-1.31.701-3.926-3.457-3.926-3.457s-1.645 4.926-1.913 6.53c-.269 1.586-1.493 4.308-2.668 4.208-1.191-.101.671-7.665.671-7.665s-2.18 6.212-3.305 6.345c-1.124.134.503-8.182.503-8.182s-2.013 6.73-2.634 7.13c-.62.384-1.14-.384-1.023-2.939.134-2.555.923-5.143.923-5.143s-1.762 4.626-2.181 5.11c-.403.484-1.326.852-.722-2.922.587-3.774 3.205-11.706 6.14-15.146l5.89 1.787z" fill="#FBF6F0"/><path d="M129.038 123.264c3.305 3.39 5.05 7.948 6.426 12.457 1.158 3.741 2.114 7.598 2.03 11.506-.084 3.907-1.342 7.915-4.111 10.687-1.023 1.018-2.248 1.887-3.036 3.106-1.611 2.505-.94 5.778-.369 8.7.57 2.922.838 6.362-1.276 8.483-1.174 1.169-2.835 1.686-4.446 2.087-6.241 1.62-12.885 2.572-18.153 6.262-1.644 1.136-3.087 2.522-4.664 3.741-3.205 2.488-6.862 4.325-10.486 6.145-5.285 2.638-10.638 5.31-16.426 6.479-5.788 1.169-12.164.668-17.046-2.655-3.49-2.371-6.023-6.162-6.678-10.32-.654-4.158.655-8.616 3.608-11.639 2.399-2.455 5.805-4.024 7.382-7.064 2.332-4.525-.437-10.052.436-15.062.52-3.006 2.299-5.611 4.127-8.049 1.41-1.887 2.903-3.74 4.765-5.193 4.799-3.757 11.543-4.409 16.224-8.299 3.373-2.806 5.336-6.981 8.523-9.986 7.416-7.014 25.57-9.185 33.17-1.386z" fill="#265682"/><path d="M115.683 119.757c-8.422-.718-16.19 5.043-17.902 13.292a16.553 16.553 0 00.252 7.865c1.41 6.112 2.601 11.055 4.446 14.795 1.862 3.791 2.332 8.116 1.091 12.174l-1.242 4.091c8.943 6.295 13.808 2.906 13.808 2.906l1.594-10.437c10.671.35 12.214-19.12 13.087-24.798h-.017c.034-.217.084-.417.117-.635 1.46-9.535-5.436-18.402-15.234-19.253z" fill="#FBF6F0"/><path d="M111.925 136.489c-2.148 1.77-4.329 3.506-6.392 5.377-1.208 1.102-2.366 2.271-3.373 3.557-.319.417-2.835 3.723-2.45 4.158-2.214-2.672-3.523-5.645-4.512-8.934-.453-1.52-.873-3.073-.856-4.659.017-2.238.906-4.375 1.778-6.446 1.124-2.672 2.316-5.444 4.547-7.314 1.476-1.236 3.305-1.971 5.151-2.505 4.312-1.252 8.993-1.486 13.305-.2 4.311 1.285 8.204 4.158 10.284 8.115 2.735 5.21 2.081 11.222 1.594 16.849.218-2.421-1.862-5.427-3.188-7.33-1.291-1.837-2.885-3.44-4.681-4.793a21.948 21.948 0 00-2.583-1.67c-.604-.334-1.561-.701-1.577-1.519.05 2.12-3.473 4.274-4.866 5.477a76.515 76.515 0 01-2.181 1.837z" fill="#265682"/><path d="M102.395 146.324c-.184-.584-.587-1.052-1.124-1.369-1.074-.635-3.037-1.453-4.63-.267-2.366 1.72.922 7.748 5.402 5.677 0 0 1.342-.968.352-4.041z" fill="#FBF6F0"/><path d="M108.68 143.714a.66.66 0 01-.453-.251.61.61 0 01.135-.851c.084-.067 2.047-1.436 4.765-1.119.335.033.57.334.536.668-.033.334-.369.568-.671.534-2.265-.25-3.909.885-3.926.902-.1.1-.235.134-.386.117zM123.283 142.378a.644.644 0 01-.251-.451.599.599 0 01.57-.634c.101 0 2.483-.117 4.631 1.603a.592.592 0 01.084.851.599.599 0 01-.856.084c-1.779-1.436-3.775-1.336-3.792-1.336a.654.654 0 01-.386-.117zM118.032 152.737c1.762 0 2.534-1.203 2.685-1.937a.463.463 0 00-.068-.368c-1.258-2.104-.671-4.826-.671-4.842a.517.517 0 00-.386-.618.528.528 0 00-.62.384c-.034.117-.638 2.972.671 5.394-.168.384-.705 1.219-2.332.885-.286-.05-.554.117-.604.4a.504.504 0 00.402.602c.353.066.655.1.923.1z" fill="#EBE4DA"/><path d="M119.793 245.015s6.409 9.268 8.255 21.191c1.829 11.923-2.248 46.807-2.248 46.807h-25.536c0-1.119.134-30.375-2.819-30.375S87.01 313.013 87.01 313.013H60.652s-.453-61.168 20.15-70.753l38.991 2.755z" fill="#C7A77B"/><path d="M102.294 171.623s6.594 4.743 13.909 2.772c0 0 15.352 6.479 20.435 12.09 5.067 5.611 10.151 23.846 17.483 26.1 7.332 2.238 28.757-2.521 28.757-2.521l3.657 12.073s-19.596 12.324-35.669 11.756c-16.073-.568-22.365-18.636-22.365-18.636s-.755 5.327-3.439 6.312l-5.923 19.922-37.783-3.373-1.695-22.176s-17.767 20.489-25.368 53.603l-12.952-2.505S39.36 246 52.33 217.378c12.968-28.622 25.434-42.382 49.963-45.755z" fill="#EBE4DA"/><path d="M81.053 233.894l39.529 2.838-.789 8.283-38.991-2.772.251-8.349z" fill="#272B2E"/><path d="M108.687 246.518l-12.332-.701.705-12.274 12.331.701-.704 12.274zm-9.849-2.906l7.651.435.436-7.615-7.65-.434-.437 7.614zM209.605 189.258h-24.529l11.66 13.609h1.208l11.661-13.609zM189.857 221.82H204.739l-7.08-1.837h-.721l-7.081 1.837z" fill="#F6F8F9"/><path d="M197.877 202.867h-1.157v17.35h1.157v-17.35z" fill="#F6F8F9"/><path d="M189.857 193.8l7.483 8.383 6.929-8.166-14.412-.217z" fill="#EBE4DA"/><path d="M200.092 206.106s-6.963 2.121-6.778 3.14c.167 1.002 5.939.584 5.855.634-.084.034-6.023 1.47-6.258 2.889-.235 1.42 6.375.635 6.375.635s-5.654.935-5.771 1.92c-.101.985 5.402.668 5.436 1.052.033.384-4.731.284-4.916 1.486-.185 1.203 6.526 1.604 7.332.468.805-1.135-.151-2.171-.151-2.171s1.141-2.037.402-3.089c0 0 .453-3.156-.889-3.624-.017 0 1.493-2.354-.637-3.34zM190.532 226.473s6.326-4.659 8.993-5.845c2.668-1.185 4.363-4.291 5.537-3.072 1.174 1.219-2.634 5.327-2.634 5.327s5.922.317 7.751.133c1.829-.183 5.201.334 5.436 1.654.235 1.319-8.64 1.569-8.64 1.569s4.345.084 4.815 1.269c.486 1.186-6.007 2.338-6.007 2.338s4.581-.2 5.185.351c.621.568-.084 1.369-2.936 1.987-2.853.618-2.483.919-2.483.919s2.684-.501 3.338-.201c.655.301.453 1.737-3.875 2.221-4.329.484-10.033.484-14.681-1.67l.201-6.98zM194.911 139.388s1.409-1.953 2.433-1.102c2.617 2.188-.168 4.759-1.98 5.294l-.453-4.192z" fill="#FBF6F0"/><path d="M195.784 132.007c0-.2.017-.417.017-.634.335-9.418-7.366-17.25-16.979-16.966-8.003.234-14.765 6.329-15.788 14.244a16.189 16.189 0 001.057 8.266c1.392 3.891 2.617 7.214 3.926 9.986 2.181 4.592 2.751 9.785 1.711 14.762l-.805 3.907c9.915 5.711 14.714.902 14.714.902l.436-7.214c.05-.935.839-1.67 1.778-1.703h.017c12.583-.368 9.714-19.922 9.916-25.55z" fill="#FBF6F0"/><path d="M184.868 146.577c1.667-.566 2.01-1.951 1.916-2.696a.465.465 0 00-.183-.326c-1.87-1.588-2.193-4.354-2.199-4.37a.519.519 0 00-.565-.461.527.527 0 00-.463.563c.006.121.356 3.019 2.377 4.891-.035.418-.274 1.381-1.922 1.586-.287.045-.487.289-.443.574a.505.505 0 00.576.44c.355-.05.651-.115.906-.201z" fill="#EBE4DA"/><path d="M161.389 131.289l4.06 11.238 3.02-.501 2.299-14.227-9.379 3.49z" fill="#C7A77B"/><path d="M168.939 141.692a2.488 2.488 0 00-1.241-1.202c-1.124-.501-3.104-1.069-4.53.251-2.098 1.937 1.778 7.414 5.889 4.909 0 .017 1.191-1.085-.118-3.958z" fill="#FBF6F0"/><path d="M193.351 125.562s2.299 1.736 2.533 11.689c0 0 1.208-11.055 0-12.307-1.191-1.269-2.533.618-2.533.618z" fill="#C7A77B"/><path d="M169.426 112.47c.52-.417 1.443-.684 1.762-.1.134.234.1.534.033.785a6.797 6.797 0 01-.839 2.187c3.154-2.855 7.852-3.273 12.08-2.671 4.211.601 8.305 2.054 12.55 2.371 1.678.133 3.708.267 4.513 1.736.571 1.036.235 2.388-.57 3.24-.806.852-1.997 1.269-3.171 1.403.923-.251 1.98.133 2.516.918.537.785.504 1.904-.067 2.672-.872 1.152-2.567 1.219-4.026 1.152-4.631-.2-9.262-.668-13.859-1.352.604.617 1.208 1.252 1.795 1.87.202.217.42.434.487.718.101.384-.084.801-.352 1.119-.671.801-1.812 1.085-2.869 1.018-1.057-.066-2.047-.434-3.054-.734a24.408 24.408 0 00-4.513-.885c-.319-.034-.638-.05-.94.033-.402.134-.704.468-1.023.751-1.862 1.737-4.547 2.238-7.064 2.656-.788.133-1.795.15-2.13-.568-.135-.284-.118-.601-.084-.902a20.367 20.367 0 013.875-10.153c-.553.752-1.711.818-2.097-.2-.486-1.286 1.158-2.088 2.081-2.488.839-.351 1.594-.351 2.281-1.036 1.125-1.018 1.41-2.521 2.685-3.54z" fill="#C7A77B"/><path d="M386.069 308.28v16.799h-74.997l5.638-24.214 69.359 7.415z" fill="#265682"/><path d="M406.437 300.314s-5.268 6.062-6.694 8.667c-1.409 2.605-4.731 4.091-3.574 5.377 1.158 1.286 5.654-2.271 5.654-2.271s-.134 6.028-.453 7.882c-.318 1.854-.067 5.293 1.275 5.644 1.343.334 2.282-8.65 2.282-8.65s-.033 7.648 1.124 8.216c1.175.584 2.651-9.134 2.651-9.134s-.436 8.149.084 8.817c.52.668 1.409.033 2.265-2.822.856-2.856 1.007-5.979 1.007-5.979s.117 5.745.369 6.429c.252.685 1.107 1.437 1.946-2.905.822-4.358 1.074-14.061-.772-18.953l-7.164-.318z" fill="#EBEFF2"/><path d="M245.421 258.234l3.087-18.336s27.046 1.553 42.263-14.127c15.218-15.68 19.731-26.551 31.576-32.062 11.845-5.51 53.571-4.041 64.846 0 11.275 4.041 41.726 59.097 28.187 110.146l-15.537.918s-8.137-50.631-11.526-57.778l1.124 69.184s-41.474 16.181-80.634 0l2.248-64.892c.017-.017-15.133 20.289-65.634 6.947z" fill="#D6BB96"/><path d="M337.9 159.928s-1.242-2.254-2.433-1.486c-3.053 1.97-.436 5.076 1.426 5.861l1.007-4.375z" fill="#EBEFF2"/><path d="M337.95 151.979h.017c.017-.217.017-.451.034-.685.855-10.019 10.05-17.333 20.2-15.797 8.456 1.286 14.832 8.617 14.899 17.133a17.527 17.527 0 01-2.198 8.634c-1.98 3.94-3.708 7.297-5.47 10.069-2.919 4.575-4.177 10.019-3.724 15.413l.302 3.573c-13.003 7.832-15.654-.267-15.654-.267l.47-7.715c.067-1.001-.671-1.887-1.661-2.037h-.017c-13.288-1.97-7.718-22.326-7.198-28.321z" fill="#EBEFF2"/><path d="M361.255 160.646a.914.914 0 00.503-.101.947.947 0 00.436-1.269c-.704-1.419-3.037-3.724-6.845-2.221-.487.201-.738.752-.537 1.236.201.484.755.735 1.241.534 3.121-1.235 4.363 1.186 4.413 1.286.168.317.47.501.789.535zM346.188 156.805a.924.924 0 00.504-.1.95.95 0 00.436-1.27c-.705-1.419-3.037-3.723-6.846-2.221-.486.201-.738.752-.536 1.236.201.484.755.735 1.241.535 3.121-1.236 4.362 1.185 4.413 1.285.167.318.469.501.788.535z" fill="#D7DBDE"/><path d="M374.492 155.636l-5.771 11.389-3.121-.902-.604-15.38 9.496 4.893z" fill="#265682"/><path d="M365.131 165.705a2.616 2.616 0 011.476-1.119c1.258-.384 3.423-.734 4.765.852 1.963 2.321-2.852 7.631-6.879 4.442 0 0-1.124-1.319.638-4.175z" fill="#EBEFF2"/><path d="M341.339 145.45s-2.667 1.553-4.194 12.073c0 0 .151-11.873 1.594-13.058 1.443-1.186 2.6.985 2.6.985z" fill="#265682"/><path d="M369.811 133.794c-3.523-3.874-9.949-3.507-14.11-6.68a24.22 24.22 0 005.369 7.097c-6.174-1.736-12.349-3.49-18.523-5.226a42.018 42.018 0 006.258 5.143c-4.798.434-9.63.434-14.429-.017-.469.735-.151 1.703.185 2.505 1.829 4.425 4.077 9.284 8.54 11.071 1.392.551 2.886.752 4.379.818 5.906.284 12.415-1.185 17.298 2.105 2.265 1.519 5.1 6.846 8.321 6.044 2.869-.701 7.601-10.837-3.288-22.86z" fill="#265682"/><path d="M228.878 247.363c-.201-1.754 2.701-3.59 2.198-5.277a37.53 37.53 0 00.034-3.056 9.018 9.018 0 00-.252-1.803c1.896.434 4.966.851 4.966.851s-7.281-3.79-5.922-4.792c1.342-1.002 6.727 1.469 9.143 3.072 2.416 1.603 8.943 6.663 8.943 6.663l-1.309 7.832c-4.379 1.185-10.553.417-14.63-.518.185-1.035-3.053-1.937-3.171-2.972z" fill="#D7DBDE"/><path d="M219.332 218.791h26.156l-12.432 14.511h-1.275l-12.449-14.511zM240.388 253.507h-15.872l7.55-1.953h.772l7.55 1.953z" fill="#F6F8F9"/><path d="M231.84 251.791h1.225v-18.502h-1.225v18.502z" fill="#F6F8F9"/><path d="M240.388 223.617l-7.97 8.951-7.382-8.717 15.352-.234z" fill="#265682"/><path d="M229.482 236.742s7.416 2.271 7.231 3.34c-.184 1.069-6.325.635-6.241.668.084.033 6.409 1.57 6.661 3.073.251 1.502-6.795.684-6.795.684s6.04 1.002 6.157 2.037c.118 1.036-5.771.719-5.805 1.119-.033.401 5.05.301 5.252 1.587.201 1.285-6.946 1.703-7.802.501-.856-1.203.168-2.322.168-2.322s-1.208-2.17-.42-3.289c0 0-.486-3.373.94-3.858-.017.017-1.611-2.488.654-3.54z" fill="#EBEFF2"/></g><path d="M186.532 135.514a.645.645 0 01-.321-.405.6.6 0 01.461-.717c.099-.016 2.432-.511 4.828.844.3.172.395.546.22.828a.599.599 0 01-.831.219c-1.986-1.135-3.941-.717-3.958-.715a.647.647 0 01-.399-.054z" fill="#EBE4DA"/><path d="M240.514 156.859l4.659 1.77-4.659 1.769c-2.956 1.122-5.33 3.409-6.494 6.257l-1.837 4.488-1.836-4.488c-1.164-2.848-3.538-5.135-6.495-6.257l-4.658-1.769 4.658-1.77c2.957-1.122 5.331-3.409 6.495-6.257l1.836-4.488 1.837 4.488c1.164 2.848 3.538 5.092 6.494 6.257z" fill="#99A3AB"/><path d="M338.366 94.72l4.658 1.769-4.658 1.77c-2.956 1.121-5.33 3.408-6.495 6.256l-1.836 4.488-1.836-4.488c-1.165-2.848-3.539-5.135-6.495-6.257l-4.658-1.77 4.658-1.768c2.956-1.122 5.33-3.41 6.495-6.257l1.836-4.488 1.836 4.488c1.165 2.848 3.539 5.092 6.495 6.257z" fill="#D6BB96"/><path d="M97.828 345.743L105 348.5l-7.172 2.757c-4.552 1.748-8.207 5.312-10 9.75L85 368l-2.828-6.993c-1.793-4.438-5.448-8.002-10-9.75L65 348.5l7.172-2.757c4.552-1.748 8.207-5.312 10-9.75L85 329l2.828 6.993c1.793 4.438 5.448 7.935 10 9.75z" fill="#99A3AB"/><path d="M297.621 329.45L303 331.5l-5.379 2.05c-3.414 1.3-6.155 3.95-7.5 7.25L288 346l-2.121-5.2c-1.345-3.3-4.086-5.95-7.5-7.25L273 331.5l5.379-2.05c3.414-1.3 6.155-3.95 7.5-7.25L288 317l2.121 5.2c1.345 3.3 4.086 5.9 7.5 7.25zM352.621 405.45L358 407.5l-5.379 2.05c-3.414 1.3-6.155 3.95-7.5 7.25L343 422l-2.121-5.2c-1.345-3.3-4.086-5.95-7.5-7.25L328 407.5l5.379-2.05c3.414-1.3 6.155-3.95 7.5-7.25L343 393l2.121 5.2c1.345 3.3 4.086 5.9 7.5 7.25z" fill="#EBE4DA"/><path d="M142.956 82.5l2.633 1.043-2.633 1.044a6.535 6.535 0 00-3.68 3.668l-1.047 2.624-1.048-2.624a6.532 6.532 0 00-3.68-3.668l-2.633-1.044 2.633-1.044a6.533 6.533 0 003.68-3.668l1.048-2.624 1.047 2.624a6.364 6.364 0 003.68 3.668zM370.088 323.292l2.633 1.044-2.633 1.044a6.532 6.532 0 00-3.68 3.668l-1.047 2.624-1.048-2.624a6.532 6.532 0 00-3.68-3.668L358 324.336l2.633-1.044a6.532 6.532 0 003.68-3.668l1.048-2.624 1.047 2.624a6.36 6.36 0 003.68 3.668zM186.088 12.292l2.633 1.044-2.633 1.044a6.533 6.533 0 00-3.68 3.668l-1.047 2.624-1.048-2.624a6.533 6.533 0 00-3.68-3.668L174 13.336l2.633-1.044a6.532 6.532 0 003.68-3.668L181.361 6l1.047 2.624a6.361 6.361 0 003.68 3.668z" fill="#265682"/><path d="M262.945 68.602l9.938 3.721-9.938 3.722c-6.306 2.36-11.37 7.17-13.855 13.161l-3.917 9.44-3.918-9.44c-2.484-5.99-7.549-10.801-13.855-13.161l-9.938-3.722 9.938-3.721c6.306-2.36 11.371-7.171 13.855-13.162l3.918-9.44 3.917 9.44c2.485 5.99 7.549 10.71 13.855 13.162zM231.483 377.602l9.937 3.721-9.937 3.722c-6.307 2.36-11.371 7.171-13.855 13.161l-3.918 9.44-3.918-9.44c-2.484-5.99-7.548-10.801-13.855-13.161L186 381.323l9.937-3.721c6.307-2.36 11.371-7.171 13.855-13.162l3.918-9.44 3.918 9.44c2.484 5.991 7.548 10.711 13.855 13.162z" fill="#FF685D"/></g><defs><clipPath id="clip0"><path fill="#fff" d="M0 0h460v422H0z"/></clipPath></defs></svg>