<svg width="217" height="214" viewBox="0 0 217 214" fill="none" xmlns="http://www.w3.org/2000/svg">
<path d="M17 213L11 117L194 93.9999L202 182L17 213Z" fill="#265682"/>
<path d="M11.5683 206.403L0.209397 114.743L201.667 101.705L215.802 185.262L11.5683 206.403Z" fill="#FBF6F0"/>
<circle cx="73.645" cy="116" r="4" fill="#C7A77B"/>
<circle cx="124.645" cy="114" r="4" fill="#C7A77B"/>
<path d="M55.0044 164.56C56.3377 164.56 57.5111 164.2 58.5244 163.48C59.5644 162.76 60.0844 161.68 60.0844 160.24C60.0844 158.773 59.5244 157.653 58.4044 156.88C57.3111 156.107 55.7377 155.44 53.6844 154.88C51.6577 154.293 50.1777 153.787 49.2444 153.36C48.3377 152.933 47.4711 152.373 46.6444 151.68C44.9911 150.293 44.1644 148.147 44.1644 145.24C44.1644 142.867 45.0044 140.827 46.6844 139.12C48.3911 137.413 50.7111 136.56 53.6444 136.56C55.0577 136.56 56.5244 136.773 58.0444 137.2C59.5911 137.6 60.5511 137.8 60.9244 137.8C61.2977 137.8 61.6311 137.533 61.9244 137H62.3644L62.6444 145.08H62.0044C60.7244 142.76 59.3777 140.907 57.9644 139.52C56.5777 138.107 55.0577 137.4 53.4044 137.4C51.7777 137.4 50.5111 137.787 49.6044 138.56C48.6977 139.307 48.2444 140.32 48.2444 141.6C48.2444 142.853 48.7777 143.827 49.8444 144.52C50.9377 145.187 52.2711 145.733 53.8444 146.16C55.4177 146.587 56.4444 146.88 56.9244 147.04C57.4311 147.2 58.0444 147.427 58.7644 147.72C59.5111 147.987 60.1111 148.28 60.5644 148.6C61.0444 148.893 61.5377 149.28 62.0444 149.76C62.5777 150.213 62.9911 150.72 63.2844 151.28C64.0044 152.56 64.3644 154.08 64.3644 155.84C64.3644 158.72 63.4577 161.04 61.6444 162.8C59.8577 164.533 57.4977 165.4 54.5644 165.4C53.0444 165.4 51.2977 165.2 49.3244 164.8C47.3777 164.4 46.2977 164.2 46.0844 164.2C45.7111 164.2 45.3511 164.6 45.0044 165.4H44.4444L44.0444 155.88H44.7244C45.8977 158.2 47.3911 160.227 49.2044 161.96C51.0444 163.693 52.9777 164.56 55.0044 164.56ZM72.2688 143.2C70.8554 143.2 69.8421 142.84 69.2288 142.12C68.6421 141.4 68.3488 140.507 68.3488 139.44C68.3488 138.373 68.6688 137.493 69.3088 136.8C69.9754 136.107 70.9754 135.76 72.3088 135.76C73.6421 135.76 74.6554 136.08 75.3488 136.72C76.0421 137.333 76.3888 138.227 76.3888 139.4C76.3888 140.547 76.0554 141.467 75.3888 142.16C74.7221 142.853 73.6821 143.2 72.2688 143.2ZM66.2288 145.96H76.0288V164.28H78.2688V165H66.3888V164.28H68.5888V146.68H66.2288V145.96ZM95.1241 143.88L96.2441 143.2C96.4041 142.373 96.0841 141.96 95.2841 141.96C94.1374 141.96 93.5641 142.84 93.5641 144.6C93.5641 145.293 93.6574 146.093 93.8441 147C95.8707 148.36 96.8841 150.107 96.8841 152.24C96.8841 154.347 96.1507 155.987 94.6841 157.16C93.2174 158.333 91.2307 158.92 88.7241 158.92C87.6841 158.92 86.6041 158.813 85.4841 158.6C84.3107 159.347 83.7241 159.907 83.7241 160.28C83.7241 160.653 84.5774 160.84 86.2841 160.84H90.3641C96.4174 160.84 99.4441 163.013 99.4441 167.36C99.4441 169.707 98.5241 171.56 96.6841 172.92C94.8707 174.307 92.0307 175 88.1641 175C81.5774 175 78.2841 173.573 78.2841 170.72C78.2841 169.173 79.3107 168.107 81.3641 167.52L83.7641 168.6C83.5507 169.373 83.4441 170.107 83.4441 170.8C83.4441 173.093 85.1507 174.24 88.5641 174.24C90.6441 174.24 92.2441 173.853 93.3641 173.08C94.4841 172.307 95.0441 171.347 95.0441 170.2C95.0441 169.053 94.6974 168.28 94.0041 167.88C93.3374 167.507 91.9907 167.32 89.9641 167.32H86.0841C83.9241 167.32 82.3774 166.96 81.4441 166.24C80.5107 165.52 80.0441 164.64 80.0441 163.6C80.0441 162.533 80.3774 161.653 81.0441 160.96C81.7107 160.24 82.8974 159.36 84.6041 158.32C81.5107 157.44 79.9641 155.413 79.9641 152.24C79.9641 150.24 80.6841 148.627 82.1241 147.4C83.5641 146.173 85.7241 145.56 88.6041 145.56C90.3374 145.56 91.8174 145.893 93.0441 146.56C92.8841 145.84 92.8041 145.187 92.8041 144.6C92.8041 143.107 93.2041 142.027 94.0041 141.36C94.8041 140.693 95.6974 140.36 96.6841 140.36C97.6707 140.36 98.4574 140.627 99.0441 141.16C99.6574 141.667 99.9641 142.373 99.9641 143.28C99.9641 144.187 99.7241 144.867 99.2441 145.32C98.7641 145.747 98.1774 145.96 97.4841 145.96C96.8174 145.96 96.2574 145.787 95.8041 145.44C95.3774 145.067 95.1507 144.547 95.1241 143.88ZM86.6441 151.36V153.52C86.6441 155.307 86.7907 156.52 87.0841 157.16C87.4041 157.8 87.8707 158.12 88.4841 158.12C89.1241 158.12 89.5774 157.813 89.8441 157.2C90.1374 156.56 90.2841 155.267 90.2841 153.32V151.36C90.2841 149.28 90.1507 147.92 89.8841 147.28C89.6174 146.613 89.1641 146.28 88.5241 146.28C87.9107 146.28 87.4441 146.627 87.1241 147.32C86.8041 147.987 86.6441 149.333 86.6441 151.36ZM100.063 145.96H109.703V149.64C110.129 148.413 110.783 147.427 111.663 146.68C112.543 145.933 113.876 145.56 115.663 145.56C119.796 145.56 121.863 147.787 121.863 152.24V164.28H124.103V165H112.783V164.28H114.423V151.28C114.423 149.68 114.316 148.653 114.103 148.2C113.889 147.72 113.503 147.48 112.943 147.48C112.089 147.48 111.329 148.04 110.663 149.16C110.023 150.28 109.703 151.64 109.703 153.24V164.28H111.423V165H100.063V164.28H102.263V146.68H100.063V145.96ZM132.418 137H144.618V137.76H142.418V164.24H144.618V165H132.418V164.24H134.618V137.76H132.418V137ZM146.117 145.96H155.757V149.64C156.184 148.413 156.837 147.427 157.717 146.68C158.597 145.933 159.931 145.56 161.717 145.56C165.851 145.56 167.917 147.787 167.917 152.24V164.28H170.157V165H158.837V164.28H160.477V151.28C160.477 149.68 160.371 148.653 160.157 148.2C159.944 147.72 159.557 147.48 158.997 147.48C158.144 147.48 157.384 148.04 156.717 149.16C156.077 150.28 155.757 151.64 155.757 153.24V164.28H157.477V165H146.117V164.28H148.317V146.68H146.117V145.96Z" fill="#265682"/>
<path d="M72.645 118L103.645 59L126.645 118" stroke="#C7A77B"/>
<path d="M55.5 92C55.5 92 60 85.1667 61 83.5L58 83.5L53.5 92.5L57 96.5C56.5 94.5 55.5 92 55.5 92Z" fill="#265682"/>
<path d="M47.5 90C47.5 90 52 83.1667 53 81.5L50 81.5L45.5 90.5L49 94.5C48.5 92.5 47.5 90 47.5 90Z" fill="#265682"/>
<path fill-rule="evenodd" clip-rule="evenodd" d="M49.8211 82.2579C62.3742 90.4161 100.054 92.086 103.012 61.3209L110.287 57.4795L102.832 59.4068L110.479 52.1119L102.103 55.3917C101.007 51.1895 96.275 42.6885 86.1145 42.3003C79.4657 42.6524 74.0857 47.5206 71.063 50.2559C70.0887 51.1373 69.3592 51.7974 68.9112 52.0132C68.6896 52.1202 68.3249 52.3497 67.8296 52.6612C64.216 54.9351 53.6529 61.5821 41.0345 56.8086C34.2023 53.3277 31.997 45.9576 31.2142 42.9561C29.3272 53.0123 37.268 74.1002 49.8211 82.2579ZM97.7522 52.1319L90.5825 55.7662C91.0126 54.7706 92.403 52.7378 93.7895 52.1949C95.1759 51.6519 96.9477 51.8956 97.7522 52.1319Z" fill="#265682"/>
<path fill-rule="evenodd" clip-rule="evenodd" d="M48.1019 38.6084C46.1149 30.9028 45.8875 22.7085 48.8712 15.0893C51.3662 25.7949 60.0303 40.1987 73.711 44.5908C73.711 44.5908 68.6425 47.5815 65.3403 55.4697C63.104 60.8115 65.8658 66.5498 66.9789 68.5122C67.2431 68.9585 67.4046 69.2163 67.4045 69.2163C44.4716 59.6396 37.1783 46.017 40.3368 23.852C43.0167 30.2841 45.5449 35.041 48.1019 38.6084Z" fill="#265682"/>
</svg>
